M48
; DRILL file KiCad 10.0.5 date 2026-09-11T04:59:55
; FORMAT={-:-/ absolute / metric / decimal}
; #@! TF.CreationDate,2026-09-11T04:59:55+03:00
; #@! TF.GenerationSoftware,Kicad,Pcbnew,10.0.5
; #@! TF.FileFunction,Plated,1,2,PTH
FMAT,2
METRIC
; #@! TA.AperFunction,Plated,PTH,ViaDrill
T1C0.300
; #@! TA.AperFunction,Plated,PTH,ComponentDrill
T2C1.000
%
G90
G05
T1
X127.75Y-78.0
X131.0Y-105.5
X134.0Y-105.0
X141.75Y-101.0
X142.0Y-106.0
X143.5Y-98.5
X143.75Y-85.5
X144.37Y-77.21
X147.0Y-105.5
X148.75Y-100.75
X149.0Y-105.0
X149.25Y-93.5
X150.0Y-104.0
X151.5Y-79.25
X151.75Y-104.0
X153.25Y-105.5
X153.8Y-88.75
X154.75Y-103.0
X156.0Y-105.5
X156.34Y-88.75
X158.5Y-105.5
X158.88Y-88.88
X161.42Y-88.92
X163.75Y-84.0
X163.75Y-88.75
X165.75Y-88.5
T2
X107.5Y-83.38
X107.5Y-85.92
X107.5Y-88.46
X107.5Y-91.0
X107.5Y-93.54
X107.5Y-96.08
X107.5Y-98.62
X107.5Y-101.16
X107.5Y-103.7
X107.5Y-106.24
X115.38Y-106.5
X117.92Y-106.5
X120.46Y-106.5
X123.0Y-106.5
X125.54Y-106.5
X130.42Y-75.96
X130.42Y-78.5
X130.46Y-97.46
X130.46Y-100.0
X132.96Y-75.96
X132.96Y-78.5
X133.0Y-97.46
X133.0Y-100.0
X135.5Y-75.96
X135.5Y-78.5
X135.54Y-97.46
X135.54Y-100.0
X138.04Y-75.96
X138.04Y-78.5
X138.08Y-97.46
X138.08Y-100.0
X140.58Y-75.96
X140.58Y-78.5
X140.62Y-97.46
X140.62Y-100.0
X143.12Y-75.96
X143.12Y-78.5
X143.16Y-97.46
X143.16Y-100.0
X145.66Y-75.96
X145.66Y-78.5
X145.7Y-97.46
X145.7Y-100.0
M30
