%TF.GenerationSoftware,KiCad,Pcbnew,10.0.5*%
%TF.CreationDate,2026-09-11T04:59:55+03:00*%
%TF.ProjectId,cardputer_c5,63617264-7075-4746-9572-5f63352e6b69,rev?*%
%TF.SameCoordinates,Original*%
%TF.FileFunction,Drillmap*%
%TF.FilePolarity,Positive*%
%FSLAX45Y45*%
G04 Gerber Fmt 4.5, Leading zero omitted, Abs format (unit mm)*
G04 Created by KiCad (PCBNEW 10.0.5) date 2026-09-11 04:59:55*
%MOMM*%
%LPD*%
G01*
G04 APERTURE LIST*
%ADD10C,0.200000*%
G04 APERTURE END LIST*
D10*
X10550000Y-7800000D02*
X10550000Y-7800000D01*
G75*
G02*
X10950000Y-7400000I400000J0D01*
G01*
X16700000Y-7400000D01*
G75*
G02*
X17100000Y-7800000I0J-400000D01*
G01*
X17100000Y-10650000D01*
G75*
G02*
X16700000Y-11050000I-400000J0D01*
G01*
X10950000Y-11050000D01*
G75*
G02*
X10550000Y-10650000I0J400000D01*
G01*
X10550000Y-7800000D01*
X11180000Y-7770000D02*
G75*
G02*
X10820000Y-7770000I-180000J0D01*
G01*
X10820000Y-7770000D02*
G75*
G02*
X11180000Y-7770000I180000J0D01*
G01*
X16830000Y-7800000D02*
G75*
G02*
X16470000Y-7800000I-180000J0D01*
G01*
X16470000Y-7800000D02*
G75*
G02*
X16830000Y-7800000I180000J0D01*
G01*
X10800777Y-11371484D02*
X10800777Y-11171484D01*
X10800777Y-11171484D02*
X10848396Y-11171484D01*
X10848396Y-11171484D02*
X10876967Y-11181008D01*
X10876967Y-11181008D02*
X10896015Y-11200055D01*
X10896015Y-11200055D02*
X10905539Y-11219103D01*
X10905539Y-11219103D02*
X10915063Y-11257198D01*
X10915063Y-11257198D02*
X10915063Y-11285769D01*
X10915063Y-11285769D02*
X10905539Y-11323865D01*
X10905539Y-11323865D02*
X10896015Y-11342912D01*
X10896015Y-11342912D02*
X10876967Y-11361960D01*
X10876967Y-11361960D02*
X10848396Y-11371484D01*
X10848396Y-11371484D02*
X10800777Y-11371484D01*
X11000777Y-11371484D02*
X11000777Y-11238150D01*
X11000777Y-11276246D02*
X11010301Y-11257198D01*
X11010301Y-11257198D02*
X11019824Y-11247674D01*
X11019824Y-11247674D02*
X11038872Y-11238150D01*
X11038872Y-11238150D02*
X11057920Y-11238150D01*
X11124586Y-11371484D02*
X11124586Y-11238150D01*
X11124586Y-11171484D02*
X11115063Y-11181008D01*
X11115063Y-11181008D02*
X11124586Y-11190531D01*
X11124586Y-11190531D02*
X11134110Y-11181008D01*
X11134110Y-11181008D02*
X11124586Y-11171484D01*
X11124586Y-11171484D02*
X11124586Y-11190531D01*
X11248396Y-11371484D02*
X11229348Y-11361960D01*
X11229348Y-11361960D02*
X11219824Y-11342912D01*
X11219824Y-11342912D02*
X11219824Y-11171484D01*
X11353158Y-11371484D02*
X11334110Y-11361960D01*
X11334110Y-11361960D02*
X11324586Y-11342912D01*
X11324586Y-11342912D02*
X11324586Y-11171484D01*
X11581729Y-11371484D02*
X11581729Y-11171484D01*
X11581729Y-11171484D02*
X11648396Y-11314341D01*
X11648396Y-11314341D02*
X11715062Y-11171484D01*
X11715062Y-11171484D02*
X11715062Y-11371484D01*
X11896015Y-11371484D02*
X11896015Y-11266722D01*
X11896015Y-11266722D02*
X11886491Y-11247674D01*
X11886491Y-11247674D02*
X11867443Y-11238150D01*
X11867443Y-11238150D02*
X11829348Y-11238150D01*
X11829348Y-11238150D02*
X11810301Y-11247674D01*
X11896015Y-11361960D02*
X11876967Y-11371484D01*
X11876967Y-11371484D02*
X11829348Y-11371484D01*
X11829348Y-11371484D02*
X11810301Y-11361960D01*
X11810301Y-11361960D02*
X11800777Y-11342912D01*
X11800777Y-11342912D02*
X11800777Y-11323865D01*
X11800777Y-11323865D02*
X11810301Y-11304817D01*
X11810301Y-11304817D02*
X11829348Y-11295293D01*
X11829348Y-11295293D02*
X11876967Y-11295293D01*
X11876967Y-11295293D02*
X11896015Y-11285769D01*
X11991253Y-11238150D02*
X11991253Y-11438150D01*
X11991253Y-11247674D02*
X12010301Y-11238150D01*
X12010301Y-11238150D02*
X12048396Y-11238150D01*
X12048396Y-11238150D02*
X12067443Y-11247674D01*
X12067443Y-11247674D02*
X12076967Y-11257198D01*
X12076967Y-11257198D02*
X12086491Y-11276246D01*
X12086491Y-11276246D02*
X12086491Y-11333388D01*
X12086491Y-11333388D02*
X12076967Y-11352436D01*
X12076967Y-11352436D02*
X12067443Y-11361960D01*
X12067443Y-11361960D02*
X12048396Y-11371484D01*
X12048396Y-11371484D02*
X12010301Y-11371484D01*
X12010301Y-11371484D02*
X11991253Y-11361960D01*
X12172205Y-11352436D02*
X12181729Y-11361960D01*
X12181729Y-11361960D02*
X12172205Y-11371484D01*
X12172205Y-11371484D02*
X12162682Y-11361960D01*
X12162682Y-11361960D02*
X12172205Y-11352436D01*
X12172205Y-11352436D02*
X12172205Y-11371484D01*
X12172205Y-11247674D02*
X12181729Y-11257198D01*
X12181729Y-11257198D02*
X12172205Y-11266722D01*
X12172205Y-11266722D02*
X12162682Y-11257198D01*
X12162682Y-11257198D02*
X12172205Y-11247674D01*
X12172205Y-11247674D02*
X12172205Y-11266722D01*
M02*
