G04 #@! TF.GenerationSoftware,KiCad,Pcbnew,10.0.5*
G04 #@! TF.CreationDate,2026-09-11T04:59:55+03:00*
G04 #@! TF.ProjectId,cardputer_c5,63617264-7075-4746-9572-5f63352e6b69,rev?*
G04 #@! TF.SameCoordinates,Original*
G04 #@! TF.FileFunction,Soldermask,Top*
G04 #@! TF.FilePolarity,Negative*
%FSLAX46Y46*%
G04 Gerber Fmt 4.6, Leading zero omitted, Abs format (unit mm)*
G04 Created by KiCad (PCBNEW 10.0.5) date 2026-09-11 04:59:55*
%MOMM*%
%LPD*%
G01*
G04 APERTURE LIST*
G04 Aperture macros list*
%AMRoundRect*
0 Rectangle with rounded corners*
0 $1 Rounding radius*
0 $2 $3 $4 $5 $6 $7 $8 $9 X,Y pos of 4 corners*
0 Add a 4 corners polygon primitive as box body*
4,1,4,$2,$3,$4,$5,$6,$7,$8,$9,$2,$3,0*
0 Add four circle primitives for the rounded corners*
1,1,$1+$1,$2,$3*
1,1,$1+$1,$4,$5*
1,1,$1+$1,$6,$7*
1,1,$1+$1,$8,$9*
0 Add four rect primitives between the rounded corners*
20,1,$1+$1,$2,$3,$4,$5,0*
20,1,$1+$1,$4,$5,$6,$7,0*
20,1,$1+$1,$6,$7,$8,$9,0*
20,1,$1+$1,$8,$9,$2,$3,0*%
%AMFreePoly0*
4,1,23,0.500000,-0.750000,0.000000,-0.750000,0.000000,-0.745722,-0.065263,-0.745722,-0.191342,-0.711940,-0.304381,-0.646677,-0.396677,-0.554381,-0.461940,-0.441342,-0.495722,-0.315263,-0.495722,-0.250000,-0.500000,-0.250000,-0.500000,0.250000,-0.495722,0.250000,-0.495722,0.315263,-0.461940,0.441342,-0.396677,0.554381,-0.304381,0.646677,-0.191342,0.711940,-0.065263,0.745722,0.000000,0.745722,
0.000000,0.750000,0.500000,0.750000,0.500000,-0.750000,0.500000,-0.750000,$1*%
%AMFreePoly1*
4,1,23,0.000000,0.745722,0.065263,0.745722,0.191342,0.711940,0.304381,0.646677,0.396677,0.554381,0.461940,0.441342,0.495722,0.315263,0.495722,0.250000,0.500000,0.250000,0.500000,-0.250000,0.495722,-0.250000,0.495722,-0.315263,0.461940,-0.441342,0.396677,-0.554381,0.304381,-0.646677,0.191342,-0.711940,0.065263,-0.745722,0.000000,-0.745722,0.000000,-0.750000,-0.500000,-0.750000,
-0.500000,0.750000,0.000000,0.750000,0.000000,0.745722,0.000000,0.745722,$1*%
G04 Aperture macros list end*
%ADD10FreePoly0,270.000000*%
%ADD11FreePoly1,270.000000*%
%ADD12R,1.700000X1.700000*%
%ADD13C,1.700000*%
%ADD14RoundRect,0.250000X0.385000X1.350000X-0.385000X1.350000X-0.385000X-1.350000X0.385000X-1.350000X0*%
%ADD15RoundRect,0.250000X0.425000X1.600000X-0.425000X1.600000X-0.425000X-1.600000X0.425000X-1.600000X0*%
%ADD16RoundRect,0.250000X0.475000X-0.337500X0.475000X0.337500X-0.475000X0.337500X-0.475000X-0.337500X0*%
%ADD17RoundRect,0.375000X-0.625000X-0.375000X0.625000X-0.375000X0.625000X0.375000X-0.625000X0.375000X0*%
%ADD18RoundRect,0.500000X-0.500000X-1.400000X0.500000X-1.400000X0.500000X1.400000X-0.500000X1.400000X0*%
%ADD19RoundRect,0.075000X0.125000X0.075000X-0.125000X0.075000X-0.125000X-0.075000X0.125000X-0.075000X0*%
%ADD20RoundRect,0.102000X0.500000X0.525000X-0.500000X0.525000X-0.500000X-0.525000X0.500000X-0.525000X0*%
%ADD21RoundRect,0.102000X0.525000X1.100000X-0.525000X1.100000X-0.525000X-1.100000X0.525000X-1.100000X0*%
%ADD22R,1.500000X1.500000*%
%ADD23RoundRect,0.250000X-0.295000X0.407500X-0.295000X-0.407500X0.295000X-0.407500X0.295000X0.407500X0*%
%ADD24RoundRect,0.250000X0.295000X-0.407500X0.295000X0.407500X-0.295000X0.407500X-0.295000X-0.407500X0*%
%ADD25RoundRect,0.075000X-0.125000X-0.075000X0.125000X-0.075000X0.125000X0.075000X-0.125000X0.075000X0*%
%ADD26RoundRect,0.500000X-0.500000X1.000000X-0.500000X-1.000000X0.500000X-1.000000X0.500000X1.000000X0*%
%ADD27RoundRect,0.250000X-1.500000X1.500000X-1.500000X-1.500000X1.500000X-1.500000X1.500000X1.500000X0*%
%ADD28RoundRect,0.250000X-0.400000X0.900000X-0.400000X-0.900000X0.400000X-0.900000X0.400000X0.900000X0*%
%ADD29C,1.300000*%
G04 APERTURE END LIST*
G04 #@! TO.C,JP3*
G36*
X142250000Y-104350000D02*
G01*
X143750000Y-104350000D01*
X143750000Y-104650000D01*
X142250000Y-104650000D01*
X142250000Y-104350000D01*
G37*
G04 #@! TO.C,JP1*
G36*
X129250000Y-104100000D02*
G01*
X130750000Y-104100000D01*
X130750000Y-104400000D01*
X129250000Y-104400000D01*
X129250000Y-104100000D01*
G37*
G04 #@! TO.C,JP2*
G36*
X131750000Y-104100000D02*
G01*
X133250000Y-104100000D01*
X133250000Y-104400000D01*
X131750000Y-104400000D01*
X131750000Y-104100000D01*
G37*
G04 #@! TO.C,JP6*
G36*
X138250000Y-104350000D02*
G01*
X139750000Y-104350000D01*
X139750000Y-104650000D01*
X138250000Y-104650000D01*
X138250000Y-104350000D01*
G37*
G04 #@! TO.C,JP4*
G36*
X144750000Y-104350000D02*
G01*
X146250000Y-104350000D01*
X146250000Y-104650000D01*
X144750000Y-104650000D01*
X144750000Y-104350000D01*
G37*
G04 #@! TO.C,JP5*
G36*
X135750000Y-104350000D02*
G01*
X137250000Y-104350000D01*
X137250000Y-104650000D01*
X135750000Y-104650000D01*
X135750000Y-104350000D01*
G37*
G04 #@! TD*
D10*
G04 #@! TO.C,JP3*
X143000000Y-103850000D03*
D11*
X143000000Y-105150000D03*
G04 #@! TD*
D12*
G04 #@! TO.C,J7*
X130420000Y-78500000D03*
D13*
X130420000Y-75960000D03*
X132960000Y-78500000D03*
X132960000Y-75960000D03*
X135500000Y-78500000D03*
X135500000Y-75960000D03*
X138040000Y-78500000D03*
X138040000Y-75960000D03*
X140580000Y-78500000D03*
X140580000Y-75960000D03*
X143120000Y-78500000D03*
X143120000Y-75960000D03*
X145660000Y-78500000D03*
X145660000Y-75960000D03*
G04 #@! TD*
D14*
G04 #@! TO.C,J1*
X116725000Y-76162500D03*
D15*
X113900000Y-76412500D03*
X119550000Y-76412500D03*
G04 #@! TD*
D16*
G04 #@! TO.C,C3*
X143500000Y-84037500D03*
X143500000Y-81962500D03*
G04 #@! TD*
D17*
G04 #@! TO.C,U2*
X147850000Y-81700000D03*
X147850000Y-84000000D03*
D18*
X154150000Y-84000000D03*
D17*
X147850000Y-86300000D03*
G04 #@! TD*
D14*
G04 #@! TO.C,J3*
X159500000Y-76162500D03*
D15*
X156675000Y-76412500D03*
X162325000Y-76412500D03*
G04 #@! TD*
D19*
G04 #@! TO.C,REF\u002A\u002A*
X472725000Y46500000D03*
X472225000Y46500000D03*
G04 #@! TD*
D20*
G04 #@! TO.C,J5*
X159500000Y-80475000D03*
D21*
X160975000Y-82000000D03*
X158025000Y-82000000D03*
G04 #@! TD*
D10*
G04 #@! TO.C,JP1*
X130000000Y-103600000D03*
D11*
X130000000Y-104900000D03*
G04 #@! TD*
D12*
G04 #@! TO.C,J9*
X107500000Y-106240000D03*
D13*
X107500000Y-103700000D03*
X107500000Y-101160000D03*
X107500000Y-98620000D03*
X107500000Y-96080000D03*
X107500000Y-93540000D03*
X107500000Y-91000000D03*
X107500000Y-88460000D03*
X107500000Y-85920000D03*
X107500000Y-83380000D03*
G04 #@! TD*
D20*
G04 #@! TO.C,J4*
X116725000Y-80475000D03*
D21*
X118200000Y-82000000D03*
X115250000Y-82000000D03*
G04 #@! TD*
D10*
G04 #@! TO.C,JP2*
X132500000Y-103600000D03*
D11*
X132500000Y-104900000D03*
G04 #@! TD*
D22*
G04 #@! TO.C,TP3*
X169000000Y-87000000D03*
G04 #@! TD*
G04 #@! TO.C,TP2*
X169000000Y-84325000D03*
G04 #@! TD*
D23*
G04 #@! TO.C,C2*
X145500000Y-86522500D03*
X145500000Y-88477500D03*
G04 #@! TD*
D12*
G04 #@! TO.C,J6*
X125540000Y-106500000D03*
D13*
X123000000Y-106500000D03*
X120460000Y-106500000D03*
X117920000Y-106500000D03*
X115380000Y-106500000D03*
G04 #@! TD*
D10*
G04 #@! TO.C,JP6*
X139000000Y-103850000D03*
D11*
X139000000Y-105150000D03*
G04 #@! TD*
D24*
G04 #@! TO.C,C1*
X145500000Y-83977500D03*
X145500000Y-82022500D03*
G04 #@! TD*
D10*
G04 #@! TO.C,JP4*
X145500000Y-103850000D03*
D11*
X145500000Y-105150000D03*
G04 #@! TD*
D25*
G04 #@! TO.C,REF\u002A\u002A*
X159250000Y-70000000D03*
X159750000Y-70000000D03*
G04 #@! TD*
D10*
G04 #@! TO.C,JP5*
X136500000Y-103850000D03*
D11*
X136500000Y-105150000D03*
G04 #@! TD*
D26*
G04 #@! TO.C,U1*
X166500000Y-90770000D03*
X163960000Y-90770000D03*
X161420000Y-90770000D03*
X158880000Y-90770000D03*
X156340000Y-90770000D03*
X153800000Y-90770000D03*
X151260000Y-90770000D03*
X151260000Y-107770000D03*
X153800000Y-107770000D03*
X156340000Y-107770000D03*
X158880000Y-107770000D03*
X161420000Y-107770000D03*
X163960000Y-107770000D03*
X166500000Y-107770000D03*
D27*
X158280000Y-101370000D03*
D28*
X159280000Y-94770000D03*
X161180000Y-94770000D03*
D29*
X167500000Y-98000000D03*
X164920000Y-98000000D03*
X162380000Y-98000000D03*
X162380000Y-100540000D03*
X164920000Y-100540000D03*
X167500000Y-100540000D03*
G04 #@! TD*
D22*
G04 #@! TO.C,TP1*
X169000000Y-81500000D03*
G04 #@! TD*
D25*
G04 #@! TO.C,REF\u002A\u002A*
X116475000Y-71500000D03*
X116975000Y-71500000D03*
G04 #@! TD*
D12*
G04 #@! TO.C,J8*
X130460000Y-100000000D03*
D13*
X130460000Y-97460000D03*
X133000000Y-100000000D03*
X133000000Y-97460000D03*
X135540000Y-100000000D03*
X135540000Y-97460000D03*
X138080000Y-100000000D03*
X138080000Y-97460000D03*
X140620000Y-100000000D03*
X140620000Y-97460000D03*
X143160000Y-100000000D03*
X143160000Y-97460000D03*
X145700000Y-100000000D03*
X145700000Y-97460000D03*
G04 #@! TD*
M02*
