%TF.GenerationSoftware,KiCad,Pcbnew,10.0.5*%
%TF.CreationDate,2026-09-11T04:59:55+03:00*%
%TF.ProjectId,cardputer_c5,63617264-7075-4746-9572-5f63352e6b69,rev?*%
%TF.SameCoordinates,Original*%
%TF.FileFunction,Drillmap*%
%TF.FilePolarity,Positive*%
%FSLAX45Y45*%
G04 Gerber Fmt 4.5, Leading zero omitted, Abs format (unit mm)*
G04 Created by KiCad (PCBNEW 10.0.5) date 2026-09-11 04:59:55*
%MOMM*%
%LPD*%
G01*
G04 APERTURE LIST*
%ADD10C,0.200000*%
%ADD11C,0.100000*%
G04 APERTURE END LIST*
D10*
X10550000Y-7800000D02*
X10550000Y-7800000D01*
G75*
G02*
X10950000Y-7400000I400000J0D01*
G01*
X16700000Y-7400000D01*
G75*
G02*
X17100000Y-7800000I0J-400000D01*
G01*
X17100000Y-10650000D01*
G75*
G02*
X16700000Y-11050000I-400000J0D01*
G01*
X10950000Y-11050000D01*
G75*
G02*
X10550000Y-10650000I0J400000D01*
G01*
X10550000Y-7800000D01*
X11180000Y-7770000D02*
G75*
G02*
X10820000Y-7770000I-180000J0D01*
G01*
X10820000Y-7770000D02*
G75*
G02*
X11180000Y-7770000I180000J0D01*
G01*
X16830000Y-7800000D02*
G75*
G02*
X16470000Y-7800000I-180000J0D01*
G01*
X16470000Y-7800000D02*
G75*
G02*
X16830000Y-7800000I180000J0D01*
G01*
D11*
X12760000Y-7785000D02*
X12790000Y-7815000D01*
X12790000Y-7785000D02*
X12760000Y-7815000D01*
X13085000Y-10535000D02*
X13115000Y-10565000D01*
X13115000Y-10535000D02*
X13085000Y-10565000D01*
X13385000Y-10485000D02*
X13415000Y-10515000D01*
X13415000Y-10485000D02*
X13385000Y-10515000D01*
X14160000Y-10085000D02*
X14190000Y-10115000D01*
X14190000Y-10085000D02*
X14160000Y-10115000D01*
X14185000Y-10585000D02*
X14215000Y-10615000D01*
X14215000Y-10585000D02*
X14185000Y-10615000D01*
X14335000Y-9835000D02*
X14365000Y-9865000D01*
X14365000Y-9835000D02*
X14335000Y-9865000D01*
X14360000Y-8535000D02*
X14390000Y-8565000D01*
X14390000Y-8535000D02*
X14360000Y-8565000D01*
X14422000Y-7706000D02*
X14452000Y-7736000D01*
X14452000Y-7706000D02*
X14422000Y-7736000D01*
X14685000Y-10535000D02*
X14715000Y-10565000D01*
X14715000Y-10535000D02*
X14685000Y-10565000D01*
X14860000Y-10060000D02*
X14890000Y-10090000D01*
X14890000Y-10060000D02*
X14860000Y-10090000D01*
X14885000Y-10485000D02*
X14915000Y-10515000D01*
X14915000Y-10485000D02*
X14885000Y-10515000D01*
X14910000Y-9335000D02*
X14940000Y-9365000D01*
X14940000Y-9335000D02*
X14910000Y-9365000D01*
X14985000Y-10385000D02*
X15015000Y-10415000D01*
X15015000Y-10385000D02*
X14985000Y-10415000D01*
X15135000Y-7910000D02*
X15165000Y-7940000D01*
X15165000Y-7910000D02*
X15135000Y-7940000D01*
X15160000Y-10385000D02*
X15190000Y-10415000D01*
X15190000Y-10385000D02*
X15160000Y-10415000D01*
X15310000Y-10535000D02*
X15340000Y-10565000D01*
X15340000Y-10535000D02*
X15310000Y-10565000D01*
X15365000Y-8860000D02*
X15395000Y-8890000D01*
X15395000Y-8860000D02*
X15365000Y-8890000D01*
X15460000Y-10285000D02*
X15490000Y-10315000D01*
X15490000Y-10285000D02*
X15460000Y-10315000D01*
X15585000Y-10535000D02*
X15615000Y-10565000D01*
X15615000Y-10535000D02*
X15585000Y-10565000D01*
X15619000Y-8860000D02*
X15649000Y-8890000D01*
X15649000Y-8860000D02*
X15619000Y-8890000D01*
X15835000Y-10535000D02*
X15865000Y-10565000D01*
X15865000Y-10535000D02*
X15835000Y-10565000D01*
X15873000Y-8873000D02*
X15903000Y-8903000D01*
X15903000Y-8873000D02*
X15873000Y-8903000D01*
X16127000Y-8877000D02*
X16157000Y-8907000D01*
X16157000Y-8877000D02*
X16127000Y-8907000D01*
X16360000Y-8385000D02*
X16390000Y-8415000D01*
X16390000Y-8385000D02*
X16360000Y-8415000D01*
X16360000Y-8860000D02*
X16390000Y-8890000D01*
X16390000Y-8860000D02*
X16360000Y-8890000D01*
X16560000Y-8835000D02*
X16590000Y-8865000D01*
X16590000Y-8835000D02*
X16560000Y-8865000D01*
X10800000Y-8338000D02*
G75*
G02*
X10700000Y-8338000I-50000J0D01*
G01*
X10700000Y-8338000D02*
G75*
G02*
X10800000Y-8338000I50000J0D01*
G01*
X10800000Y-8592000D02*
G75*
G02*
X10700000Y-8592000I-50000J0D01*
G01*
X10700000Y-8592000D02*
G75*
G02*
X10800000Y-8592000I50000J0D01*
G01*
X10800000Y-8846000D02*
G75*
G02*
X10700000Y-8846000I-50000J0D01*
G01*
X10700000Y-8846000D02*
G75*
G02*
X10800000Y-8846000I50000J0D01*
G01*
X10800000Y-9100000D02*
G75*
G02*
X10700000Y-9100000I-50000J0D01*
G01*
X10700000Y-9100000D02*
G75*
G02*
X10800000Y-9100000I50000J0D01*
G01*
X10800000Y-9354000D02*
G75*
G02*
X10700000Y-9354000I-50000J0D01*
G01*
X10700000Y-9354000D02*
G75*
G02*
X10800000Y-9354000I50000J0D01*
G01*
X10800000Y-9608000D02*
G75*
G02*
X10700000Y-9608000I-50000J0D01*
G01*
X10700000Y-9608000D02*
G75*
G02*
X10800000Y-9608000I50000J0D01*
G01*
X10800000Y-9862000D02*
G75*
G02*
X10700000Y-9862000I-50000J0D01*
G01*
X10700000Y-9862000D02*
G75*
G02*
X10800000Y-9862000I50000J0D01*
G01*
X10800000Y-10116000D02*
G75*
G02*
X10700000Y-10116000I-50000J0D01*
G01*
X10700000Y-10116000D02*
G75*
G02*
X10800000Y-10116000I50000J0D01*
G01*
X10800000Y-10370000D02*
G75*
G02*
X10700000Y-10370000I-50000J0D01*
G01*
X10700000Y-10370000D02*
G75*
G02*
X10800000Y-10370000I50000J0D01*
G01*
X10800000Y-10624000D02*
G75*
G02*
X10700000Y-10624000I-50000J0D01*
G01*
X10700000Y-10624000D02*
G75*
G02*
X10800000Y-10624000I50000J0D01*
G01*
X11588000Y-10650000D02*
G75*
G02*
X11488000Y-10650000I-50000J0D01*
G01*
X11488000Y-10650000D02*
G75*
G02*
X11588000Y-10650000I50000J0D01*
G01*
X11842000Y-10650000D02*
G75*
G02*
X11742000Y-10650000I-50000J0D01*
G01*
X11742000Y-10650000D02*
G75*
G02*
X11842000Y-10650000I50000J0D01*
G01*
X12096000Y-10650000D02*
G75*
G02*
X11996000Y-10650000I-50000J0D01*
G01*
X11996000Y-10650000D02*
G75*
G02*
X12096000Y-10650000I50000J0D01*
G01*
X12350000Y-10650000D02*
G75*
G02*
X12250000Y-10650000I-50000J0D01*
G01*
X12250000Y-10650000D02*
G75*
G02*
X12350000Y-10650000I50000J0D01*
G01*
X12604000Y-10650000D02*
G75*
G02*
X12504000Y-10650000I-50000J0D01*
G01*
X12504000Y-10650000D02*
G75*
G02*
X12604000Y-10650000I50000J0D01*
G01*
X13092000Y-7596000D02*
G75*
G02*
X12992000Y-7596000I-50000J0D01*
G01*
X12992000Y-7596000D02*
G75*
G02*
X13092000Y-7596000I50000J0D01*
G01*
X13092000Y-7850000D02*
G75*
G02*
X12992000Y-7850000I-50000J0D01*
G01*
X12992000Y-7850000D02*
G75*
G02*
X13092000Y-7850000I50000J0D01*
G01*
X13096000Y-9746000D02*
G75*
G02*
X12996000Y-9746000I-50000J0D01*
G01*
X12996000Y-9746000D02*
G75*
G02*
X13096000Y-9746000I50000J0D01*
G01*
X13096000Y-10000000D02*
G75*
G02*
X12996000Y-10000000I-50000J0D01*
G01*
X12996000Y-10000000D02*
G75*
G02*
X13096000Y-10000000I50000J0D01*
G01*
X13346000Y-7596000D02*
G75*
G02*
X13246000Y-7596000I-50000J0D01*
G01*
X13246000Y-7596000D02*
G75*
G02*
X13346000Y-7596000I50000J0D01*
G01*
X13346000Y-7850000D02*
G75*
G02*
X13246000Y-7850000I-50000J0D01*
G01*
X13246000Y-7850000D02*
G75*
G02*
X13346000Y-7850000I50000J0D01*
G01*
X13350000Y-9746000D02*
G75*
G02*
X13250000Y-9746000I-50000J0D01*
G01*
X13250000Y-9746000D02*
G75*
G02*
X13350000Y-9746000I50000J0D01*
G01*
X13350000Y-10000000D02*
G75*
G02*
X13250000Y-10000000I-50000J0D01*
G01*
X13250000Y-10000000D02*
G75*
G02*
X13350000Y-10000000I50000J0D01*
G01*
X13600000Y-7596000D02*
G75*
G02*
X13500000Y-7596000I-50000J0D01*
G01*
X13500000Y-7596000D02*
G75*
G02*
X13600000Y-7596000I50000J0D01*
G01*
X13600000Y-7850000D02*
G75*
G02*
X13500000Y-7850000I-50000J0D01*
G01*
X13500000Y-7850000D02*
G75*
G02*
X13600000Y-7850000I50000J0D01*
G01*
X13604000Y-9746000D02*
G75*
G02*
X13504000Y-9746000I-50000J0D01*
G01*
X13504000Y-9746000D02*
G75*
G02*
X13604000Y-9746000I50000J0D01*
G01*
X13604000Y-10000000D02*
G75*
G02*
X13504000Y-10000000I-50000J0D01*
G01*
X13504000Y-10000000D02*
G75*
G02*
X13604000Y-10000000I50000J0D01*
G01*
X13854000Y-7596000D02*
G75*
G02*
X13754000Y-7596000I-50000J0D01*
G01*
X13754000Y-7596000D02*
G75*
G02*
X13854000Y-7596000I50000J0D01*
G01*
X13854000Y-7850000D02*
G75*
G02*
X13754000Y-7850000I-50000J0D01*
G01*
X13754000Y-7850000D02*
G75*
G02*
X13854000Y-7850000I50000J0D01*
G01*
X13858000Y-9746000D02*
G75*
G02*
X13758000Y-9746000I-50000J0D01*
G01*
X13758000Y-9746000D02*
G75*
G02*
X13858000Y-9746000I50000J0D01*
G01*
X13858000Y-10000000D02*
G75*
G02*
X13758000Y-10000000I-50000J0D01*
G01*
X13758000Y-10000000D02*
G75*
G02*
X13858000Y-10000000I50000J0D01*
G01*
X14108000Y-7596000D02*
G75*
G02*
X14008000Y-7596000I-50000J0D01*
G01*
X14008000Y-7596000D02*
G75*
G02*
X14108000Y-7596000I50000J0D01*
G01*
X14108000Y-7850000D02*
G75*
G02*
X14008000Y-7850000I-50000J0D01*
G01*
X14008000Y-7850000D02*
G75*
G02*
X14108000Y-7850000I50000J0D01*
G01*
X14112000Y-9746000D02*
G75*
G02*
X14012000Y-9746000I-50000J0D01*
G01*
X14012000Y-9746000D02*
G75*
G02*
X14112000Y-9746000I50000J0D01*
G01*
X14112000Y-10000000D02*
G75*
G02*
X14012000Y-10000000I-50000J0D01*
G01*
X14012000Y-10000000D02*
G75*
G02*
X14112000Y-10000000I50000J0D01*
G01*
X14362000Y-7596000D02*
G75*
G02*
X14262000Y-7596000I-50000J0D01*
G01*
X14262000Y-7596000D02*
G75*
G02*
X14362000Y-7596000I50000J0D01*
G01*
X14362000Y-7850000D02*
G75*
G02*
X14262000Y-7850000I-50000J0D01*
G01*
X14262000Y-7850000D02*
G75*
G02*
X14362000Y-7850000I50000J0D01*
G01*
X14366000Y-9746000D02*
G75*
G02*
X14266000Y-9746000I-50000J0D01*
G01*
X14266000Y-9746000D02*
G75*
G02*
X14366000Y-9746000I50000J0D01*
G01*
X14366000Y-10000000D02*
G75*
G02*
X14266000Y-10000000I-50000J0D01*
G01*
X14266000Y-10000000D02*
G75*
G02*
X14366000Y-10000000I50000J0D01*
G01*
X14616000Y-7596000D02*
G75*
G02*
X14516000Y-7596000I-50000J0D01*
G01*
X14516000Y-7596000D02*
G75*
G02*
X14616000Y-7596000I50000J0D01*
G01*
X14616000Y-7850000D02*
G75*
G02*
X14516000Y-7850000I-50000J0D01*
G01*
X14516000Y-7850000D02*
G75*
G02*
X14616000Y-7850000I50000J0D01*
G01*
X14620000Y-9746000D02*
G75*
G02*
X14520000Y-9746000I-50000J0D01*
G01*
X14520000Y-9746000D02*
G75*
G02*
X14620000Y-9746000I50000J0D01*
G01*
X14620000Y-10000000D02*
G75*
G02*
X14520000Y-10000000I-50000J0D01*
G01*
X14520000Y-10000000D02*
G75*
G02*
X14620000Y-10000000I50000J0D01*
G01*
D10*
X10800777Y-11371484D02*
X10800777Y-11171484D01*
X10800777Y-11171484D02*
X10848396Y-11171484D01*
X10848396Y-11171484D02*
X10876967Y-11181008D01*
X10876967Y-11181008D02*
X10896015Y-11200055D01*
X10896015Y-11200055D02*
X10905539Y-11219103D01*
X10905539Y-11219103D02*
X10915063Y-11257198D01*
X10915063Y-11257198D02*
X10915063Y-11285769D01*
X10915063Y-11285769D02*
X10905539Y-11323865D01*
X10905539Y-11323865D02*
X10896015Y-11342912D01*
X10896015Y-11342912D02*
X10876967Y-11361960D01*
X10876967Y-11361960D02*
X10848396Y-11371484D01*
X10848396Y-11371484D02*
X10800777Y-11371484D01*
X11000777Y-11371484D02*
X11000777Y-11238150D01*
X11000777Y-11276246D02*
X11010301Y-11257198D01*
X11010301Y-11257198D02*
X11019824Y-11247674D01*
X11019824Y-11247674D02*
X11038872Y-11238150D01*
X11038872Y-11238150D02*
X11057920Y-11238150D01*
X11124586Y-11371484D02*
X11124586Y-11238150D01*
X11124586Y-11171484D02*
X11115063Y-11181008D01*
X11115063Y-11181008D02*
X11124586Y-11190531D01*
X11124586Y-11190531D02*
X11134110Y-11181008D01*
X11134110Y-11181008D02*
X11124586Y-11171484D01*
X11124586Y-11171484D02*
X11124586Y-11190531D01*
X11248396Y-11371484D02*
X11229348Y-11361960D01*
X11229348Y-11361960D02*
X11219824Y-11342912D01*
X11219824Y-11342912D02*
X11219824Y-11171484D01*
X11353158Y-11371484D02*
X11334110Y-11361960D01*
X11334110Y-11361960D02*
X11324586Y-11342912D01*
X11324586Y-11342912D02*
X11324586Y-11171484D01*
X11581729Y-11371484D02*
X11581729Y-11171484D01*
X11581729Y-11171484D02*
X11648396Y-11314341D01*
X11648396Y-11314341D02*
X11715062Y-11171484D01*
X11715062Y-11171484D02*
X11715062Y-11371484D01*
X11896015Y-11371484D02*
X11896015Y-11266722D01*
X11896015Y-11266722D02*
X11886491Y-11247674D01*
X11886491Y-11247674D02*
X11867443Y-11238150D01*
X11867443Y-11238150D02*
X11829348Y-11238150D01*
X11829348Y-11238150D02*
X11810301Y-11247674D01*
X11896015Y-11361960D02*
X11876967Y-11371484D01*
X11876967Y-11371484D02*
X11829348Y-11371484D01*
X11829348Y-11371484D02*
X11810301Y-11361960D01*
X11810301Y-11361960D02*
X11800777Y-11342912D01*
X11800777Y-11342912D02*
X11800777Y-11323865D01*
X11800777Y-11323865D02*
X11810301Y-11304817D01*
X11810301Y-11304817D02*
X11829348Y-11295293D01*
X11829348Y-11295293D02*
X11876967Y-11295293D01*
X11876967Y-11295293D02*
X11896015Y-11285769D01*
X11991253Y-11238150D02*
X11991253Y-11438150D01*
X11991253Y-11247674D02*
X12010301Y-11238150D01*
X12010301Y-11238150D02*
X12048396Y-11238150D01*
X12048396Y-11238150D02*
X12067443Y-11247674D01*
X12067443Y-11247674D02*
X12076967Y-11257198D01*
X12076967Y-11257198D02*
X12086491Y-11276246D01*
X12086491Y-11276246D02*
X12086491Y-11333388D01*
X12086491Y-11333388D02*
X12076967Y-11352436D01*
X12076967Y-11352436D02*
X12067443Y-11361960D01*
X12067443Y-11361960D02*
X12048396Y-11371484D01*
X12048396Y-11371484D02*
X12010301Y-11371484D01*
X12010301Y-11371484D02*
X11991253Y-11361960D01*
X12172205Y-11352436D02*
X12181729Y-11361960D01*
X12181729Y-11361960D02*
X12172205Y-11371484D01*
X12172205Y-11371484D02*
X12162682Y-11361960D01*
X12162682Y-11361960D02*
X12172205Y-11352436D01*
X12172205Y-11352436D02*
X12172205Y-11371484D01*
X12172205Y-11247674D02*
X12181729Y-11257198D01*
X12181729Y-11257198D02*
X12172205Y-11266722D01*
X12172205Y-11266722D02*
X12162682Y-11257198D01*
X12162682Y-11257198D02*
X12172205Y-11247674D01*
X12172205Y-11247674D02*
X12172205Y-11266722D01*
D11*
X10510000Y-11685000D02*
X10540000Y-11715000D01*
X10540000Y-11685000D02*
X10510000Y-11715000D01*
D10*
X10838872Y-11591484D02*
X10857920Y-11591484D01*
X10857920Y-11591484D02*
X10876967Y-11601008D01*
X10876967Y-11601008D02*
X10886491Y-11610531D01*
X10886491Y-11610531D02*
X10896015Y-11629579D01*
X10896015Y-11629579D02*
X10905539Y-11667674D01*
X10905539Y-11667674D02*
X10905539Y-11715293D01*
X10905539Y-11715293D02*
X10896015Y-11753388D01*
X10896015Y-11753388D02*
X10886491Y-11772436D01*
X10886491Y-11772436D02*
X10876967Y-11781960D01*
X10876967Y-11781960D02*
X10857920Y-11791484D01*
X10857920Y-11791484D02*
X10838872Y-11791484D01*
X10838872Y-11791484D02*
X10819824Y-11781960D01*
X10819824Y-11781960D02*
X10810301Y-11772436D01*
X10810301Y-11772436D02*
X10800777Y-11753388D01*
X10800777Y-11753388D02*
X10791253Y-11715293D01*
X10791253Y-11715293D02*
X10791253Y-11667674D01*
X10791253Y-11667674D02*
X10800777Y-11629579D01*
X10800777Y-11629579D02*
X10810301Y-11610531D01*
X10810301Y-11610531D02*
X10819824Y-11601008D01*
X10819824Y-11601008D02*
X10838872Y-11591484D01*
X10991253Y-11772436D02*
X11000777Y-11781960D01*
X11000777Y-11781960D02*
X10991253Y-11791484D01*
X10991253Y-11791484D02*
X10981729Y-11781960D01*
X10981729Y-11781960D02*
X10991253Y-11772436D01*
X10991253Y-11772436D02*
X10991253Y-11791484D01*
X11067444Y-11591484D02*
X11191253Y-11591484D01*
X11191253Y-11591484D02*
X11124586Y-11667674D01*
X11124586Y-11667674D02*
X11153158Y-11667674D01*
X11153158Y-11667674D02*
X11172205Y-11677198D01*
X11172205Y-11677198D02*
X11181729Y-11686722D01*
X11181729Y-11686722D02*
X11191253Y-11705769D01*
X11191253Y-11705769D02*
X11191253Y-11753388D01*
X11191253Y-11753388D02*
X11181729Y-11772436D01*
X11181729Y-11772436D02*
X11172205Y-11781960D01*
X11172205Y-11781960D02*
X11153158Y-11791484D01*
X11153158Y-11791484D02*
X11096015Y-11791484D01*
X11096015Y-11791484D02*
X11076967Y-11781960D01*
X11076967Y-11781960D02*
X11067444Y-11772436D01*
X11315062Y-11591484D02*
X11334110Y-11591484D01*
X11334110Y-11591484D02*
X11353158Y-11601008D01*
X11353158Y-11601008D02*
X11362682Y-11610531D01*
X11362682Y-11610531D02*
X11372205Y-11629579D01*
X11372205Y-11629579D02*
X11381729Y-11667674D01*
X11381729Y-11667674D02*
X11381729Y-11715293D01*
X11381729Y-11715293D02*
X11372205Y-11753388D01*
X11372205Y-11753388D02*
X11362682Y-11772436D01*
X11362682Y-11772436D02*
X11353158Y-11781960D01*
X11353158Y-11781960D02*
X11334110Y-11791484D01*
X11334110Y-11791484D02*
X11315062Y-11791484D01*
X11315062Y-11791484D02*
X11296015Y-11781960D01*
X11296015Y-11781960D02*
X11286491Y-11772436D01*
X11286491Y-11772436D02*
X11276967Y-11753388D01*
X11276967Y-11753388D02*
X11267443Y-11715293D01*
X11267443Y-11715293D02*
X11267443Y-11667674D01*
X11267443Y-11667674D02*
X11276967Y-11629579D01*
X11276967Y-11629579D02*
X11286491Y-11610531D01*
X11286491Y-11610531D02*
X11296015Y-11601008D01*
X11296015Y-11601008D02*
X11315062Y-11591484D01*
X11505539Y-11591484D02*
X11524586Y-11591484D01*
X11524586Y-11591484D02*
X11543634Y-11601008D01*
X11543634Y-11601008D02*
X11553158Y-11610531D01*
X11553158Y-11610531D02*
X11562682Y-11629579D01*
X11562682Y-11629579D02*
X11572205Y-11667674D01*
X11572205Y-11667674D02*
X11572205Y-11715293D01*
X11572205Y-11715293D02*
X11562682Y-11753388D01*
X11562682Y-11753388D02*
X11553158Y-11772436D01*
X11553158Y-11772436D02*
X11543634Y-11781960D01*
X11543634Y-11781960D02*
X11524586Y-11791484D01*
X11524586Y-11791484D02*
X11505539Y-11791484D01*
X11505539Y-11791484D02*
X11486491Y-11781960D01*
X11486491Y-11781960D02*
X11476967Y-11772436D01*
X11476967Y-11772436D02*
X11467443Y-11753388D01*
X11467443Y-11753388D02*
X11457920Y-11715293D01*
X11457920Y-11715293D02*
X11457920Y-11667674D01*
X11457920Y-11667674D02*
X11467443Y-11629579D01*
X11467443Y-11629579D02*
X11476967Y-11610531D01*
X11476967Y-11610531D02*
X11486491Y-11601008D01*
X11486491Y-11601008D02*
X11505539Y-11591484D01*
X11657920Y-11791484D02*
X11657920Y-11658150D01*
X11657920Y-11677198D02*
X11667443Y-11667674D01*
X11667443Y-11667674D02*
X11686491Y-11658150D01*
X11686491Y-11658150D02*
X11715063Y-11658150D01*
X11715063Y-11658150D02*
X11734110Y-11667674D01*
X11734110Y-11667674D02*
X11743634Y-11686722D01*
X11743634Y-11686722D02*
X11743634Y-11791484D01*
X11743634Y-11686722D02*
X11753158Y-11667674D01*
X11753158Y-11667674D02*
X11772205Y-11658150D01*
X11772205Y-11658150D02*
X11800777Y-11658150D01*
X11800777Y-11658150D02*
X11819824Y-11667674D01*
X11819824Y-11667674D02*
X11829348Y-11686722D01*
X11829348Y-11686722D02*
X11829348Y-11791484D01*
X11924586Y-11791484D02*
X11924586Y-11658150D01*
X11924586Y-11677198D02*
X11934110Y-11667674D01*
X11934110Y-11667674D02*
X11953158Y-11658150D01*
X11953158Y-11658150D02*
X11981729Y-11658150D01*
X11981729Y-11658150D02*
X12000777Y-11667674D01*
X12000777Y-11667674D02*
X12010301Y-11686722D01*
X12010301Y-11686722D02*
X12010301Y-11791484D01*
X12010301Y-11686722D02*
X12019824Y-11667674D01*
X12019824Y-11667674D02*
X12038872Y-11658150D01*
X12038872Y-11658150D02*
X12067443Y-11658150D01*
X12067443Y-11658150D02*
X12086491Y-11667674D01*
X12086491Y-11667674D02*
X12096015Y-11686722D01*
X12096015Y-11686722D02*
X12096015Y-11791484D01*
X12486491Y-11581960D02*
X12315063Y-11839103D01*
X12743634Y-11591484D02*
X12762682Y-11591484D01*
X12762682Y-11591484D02*
X12781729Y-11601008D01*
X12781729Y-11601008D02*
X12791253Y-11610531D01*
X12791253Y-11610531D02*
X12800777Y-11629579D01*
X12800777Y-11629579D02*
X12810301Y-11667674D01*
X12810301Y-11667674D02*
X12810301Y-11715293D01*
X12810301Y-11715293D02*
X12800777Y-11753388D01*
X12800777Y-11753388D02*
X12791253Y-11772436D01*
X12791253Y-11772436D02*
X12781729Y-11781960D01*
X12781729Y-11781960D02*
X12762682Y-11791484D01*
X12762682Y-11791484D02*
X12743634Y-11791484D01*
X12743634Y-11791484D02*
X12724586Y-11781960D01*
X12724586Y-11781960D02*
X12715063Y-11772436D01*
X12715063Y-11772436D02*
X12705539Y-11753388D01*
X12705539Y-11753388D02*
X12696015Y-11715293D01*
X12696015Y-11715293D02*
X12696015Y-11667674D01*
X12696015Y-11667674D02*
X12705539Y-11629579D01*
X12705539Y-11629579D02*
X12715063Y-11610531D01*
X12715063Y-11610531D02*
X12724586Y-11601008D01*
X12724586Y-11601008D02*
X12743634Y-11591484D01*
X12896015Y-11772436D02*
X12905539Y-11781960D01*
X12905539Y-11781960D02*
X12896015Y-11791484D01*
X12896015Y-11791484D02*
X12886491Y-11781960D01*
X12886491Y-11781960D02*
X12896015Y-11772436D01*
X12896015Y-11772436D02*
X12896015Y-11791484D01*
X13029348Y-11591484D02*
X13048396Y-11591484D01*
X13048396Y-11591484D02*
X13067444Y-11601008D01*
X13067444Y-11601008D02*
X13076967Y-11610531D01*
X13076967Y-11610531D02*
X13086491Y-11629579D01*
X13086491Y-11629579D02*
X13096015Y-11667674D01*
X13096015Y-11667674D02*
X13096015Y-11715293D01*
X13096015Y-11715293D02*
X13086491Y-11753388D01*
X13086491Y-11753388D02*
X13076967Y-11772436D01*
X13076967Y-11772436D02*
X13067444Y-11781960D01*
X13067444Y-11781960D02*
X13048396Y-11791484D01*
X13048396Y-11791484D02*
X13029348Y-11791484D01*
X13029348Y-11791484D02*
X13010301Y-11781960D01*
X13010301Y-11781960D02*
X13000777Y-11772436D01*
X13000777Y-11772436D02*
X12991253Y-11753388D01*
X12991253Y-11753388D02*
X12981729Y-11715293D01*
X12981729Y-11715293D02*
X12981729Y-11667674D01*
X12981729Y-11667674D02*
X12991253Y-11629579D01*
X12991253Y-11629579D02*
X13000777Y-11610531D01*
X13000777Y-11610531D02*
X13010301Y-11601008D01*
X13010301Y-11601008D02*
X13029348Y-11591484D01*
X13286491Y-11791484D02*
X13172206Y-11791484D01*
X13229348Y-11791484D02*
X13229348Y-11591484D01*
X13229348Y-11591484D02*
X13210301Y-11620055D01*
X13210301Y-11620055D02*
X13191253Y-11639103D01*
X13191253Y-11639103D02*
X13172206Y-11648627D01*
X13476967Y-11791484D02*
X13362682Y-11791484D01*
X13419825Y-11791484D02*
X13419825Y-11591484D01*
X13419825Y-11591484D02*
X13400777Y-11620055D01*
X13400777Y-11620055D02*
X13381729Y-11639103D01*
X13381729Y-11639103D02*
X13362682Y-11648627D01*
X13591253Y-11677198D02*
X13572206Y-11667674D01*
X13572206Y-11667674D02*
X13562682Y-11658150D01*
X13562682Y-11658150D02*
X13553158Y-11639103D01*
X13553158Y-11639103D02*
X13553158Y-11629579D01*
X13553158Y-11629579D02*
X13562682Y-11610531D01*
X13562682Y-11610531D02*
X13572206Y-11601008D01*
X13572206Y-11601008D02*
X13591253Y-11591484D01*
X13591253Y-11591484D02*
X13629348Y-11591484D01*
X13629348Y-11591484D02*
X13648396Y-11601008D01*
X13648396Y-11601008D02*
X13657920Y-11610531D01*
X13657920Y-11610531D02*
X13667444Y-11629579D01*
X13667444Y-11629579D02*
X13667444Y-11639103D01*
X13667444Y-11639103D02*
X13657920Y-11658150D01*
X13657920Y-11658150D02*
X13648396Y-11667674D01*
X13648396Y-11667674D02*
X13629348Y-11677198D01*
X13629348Y-11677198D02*
X13591253Y-11677198D01*
X13591253Y-11677198D02*
X13572206Y-11686722D01*
X13572206Y-11686722D02*
X13562682Y-11696246D01*
X13562682Y-11696246D02*
X13553158Y-11715293D01*
X13553158Y-11715293D02*
X13553158Y-11753388D01*
X13553158Y-11753388D02*
X13562682Y-11772436D01*
X13562682Y-11772436D02*
X13572206Y-11781960D01*
X13572206Y-11781960D02*
X13591253Y-11791484D01*
X13591253Y-11791484D02*
X13629348Y-11791484D01*
X13629348Y-11791484D02*
X13648396Y-11781960D01*
X13648396Y-11781960D02*
X13657920Y-11772436D01*
X13657920Y-11772436D02*
X13667444Y-11753388D01*
X13667444Y-11753388D02*
X13667444Y-11715293D01*
X13667444Y-11715293D02*
X13657920Y-11696246D01*
X13657920Y-11696246D02*
X13648396Y-11686722D01*
X13648396Y-11686722D02*
X13629348Y-11677198D01*
X13743634Y-11591484D02*
X13743634Y-11629579D01*
X13819825Y-11591484D02*
X13819825Y-11629579D01*
X14115063Y-11867674D02*
X14105539Y-11858150D01*
X14105539Y-11858150D02*
X14086491Y-11829579D01*
X14086491Y-11829579D02*
X14076968Y-11810531D01*
X14076968Y-11810531D02*
X14067444Y-11781960D01*
X14067444Y-11781960D02*
X14057920Y-11734341D01*
X14057920Y-11734341D02*
X14057920Y-11696246D01*
X14057920Y-11696246D02*
X14067444Y-11648627D01*
X14067444Y-11648627D02*
X14076968Y-11620055D01*
X14076968Y-11620055D02*
X14086491Y-11601008D01*
X14086491Y-11601008D02*
X14105539Y-11572436D01*
X14105539Y-11572436D02*
X14115063Y-11562912D01*
X14181729Y-11610531D02*
X14191253Y-11601008D01*
X14191253Y-11601008D02*
X14210301Y-11591484D01*
X14210301Y-11591484D02*
X14257920Y-11591484D01*
X14257920Y-11591484D02*
X14276968Y-11601008D01*
X14276968Y-11601008D02*
X14286491Y-11610531D01*
X14286491Y-11610531D02*
X14296015Y-11629579D01*
X14296015Y-11629579D02*
X14296015Y-11648627D01*
X14296015Y-11648627D02*
X14286491Y-11677198D01*
X14286491Y-11677198D02*
X14172206Y-11791484D01*
X14172206Y-11791484D02*
X14296015Y-11791484D01*
X14467444Y-11591484D02*
X14429348Y-11591484D01*
X14429348Y-11591484D02*
X14410301Y-11601008D01*
X14410301Y-11601008D02*
X14400777Y-11610531D01*
X14400777Y-11610531D02*
X14381729Y-11639103D01*
X14381729Y-11639103D02*
X14372206Y-11677198D01*
X14372206Y-11677198D02*
X14372206Y-11753388D01*
X14372206Y-11753388D02*
X14381729Y-11772436D01*
X14381729Y-11772436D02*
X14391253Y-11781960D01*
X14391253Y-11781960D02*
X14410301Y-11791484D01*
X14410301Y-11791484D02*
X14448396Y-11791484D01*
X14448396Y-11791484D02*
X14467444Y-11781960D01*
X14467444Y-11781960D02*
X14476968Y-11772436D01*
X14476968Y-11772436D02*
X14486491Y-11753388D01*
X14486491Y-11753388D02*
X14486491Y-11705769D01*
X14486491Y-11705769D02*
X14476968Y-11686722D01*
X14476968Y-11686722D02*
X14467444Y-11677198D01*
X14467444Y-11677198D02*
X14448396Y-11667674D01*
X14448396Y-11667674D02*
X14410301Y-11667674D01*
X14410301Y-11667674D02*
X14391253Y-11677198D01*
X14391253Y-11677198D02*
X14381729Y-11686722D01*
X14381729Y-11686722D02*
X14372206Y-11705769D01*
X14724587Y-11791484D02*
X14724587Y-11591484D01*
X14810301Y-11791484D02*
X14810301Y-11686722D01*
X14810301Y-11686722D02*
X14800777Y-11667674D01*
X14800777Y-11667674D02*
X14781730Y-11658150D01*
X14781730Y-11658150D02*
X14753158Y-11658150D01*
X14753158Y-11658150D02*
X14734110Y-11667674D01*
X14734110Y-11667674D02*
X14724587Y-11677198D01*
X14934110Y-11791484D02*
X14915063Y-11781960D01*
X14915063Y-11781960D02*
X14905539Y-11772436D01*
X14905539Y-11772436D02*
X14896015Y-11753388D01*
X14896015Y-11753388D02*
X14896015Y-11696246D01*
X14896015Y-11696246D02*
X14905539Y-11677198D01*
X14905539Y-11677198D02*
X14915063Y-11667674D01*
X14915063Y-11667674D02*
X14934110Y-11658150D01*
X14934110Y-11658150D02*
X14962682Y-11658150D01*
X14962682Y-11658150D02*
X14981730Y-11667674D01*
X14981730Y-11667674D02*
X14991253Y-11677198D01*
X14991253Y-11677198D02*
X15000777Y-11696246D01*
X15000777Y-11696246D02*
X15000777Y-11753388D01*
X15000777Y-11753388D02*
X14991253Y-11772436D01*
X14991253Y-11772436D02*
X14981730Y-11781960D01*
X14981730Y-11781960D02*
X14962682Y-11791484D01*
X14962682Y-11791484D02*
X14934110Y-11791484D01*
X15115063Y-11791484D02*
X15096015Y-11781960D01*
X15096015Y-11781960D02*
X15086491Y-11762912D01*
X15086491Y-11762912D02*
X15086491Y-11591484D01*
X15267444Y-11781960D02*
X15248396Y-11791484D01*
X15248396Y-11791484D02*
X15210301Y-11791484D01*
X15210301Y-11791484D02*
X15191253Y-11781960D01*
X15191253Y-11781960D02*
X15181730Y-11762912D01*
X15181730Y-11762912D02*
X15181730Y-11686722D01*
X15181730Y-11686722D02*
X15191253Y-11667674D01*
X15191253Y-11667674D02*
X15210301Y-11658150D01*
X15210301Y-11658150D02*
X15248396Y-11658150D01*
X15248396Y-11658150D02*
X15267444Y-11667674D01*
X15267444Y-11667674D02*
X15276968Y-11686722D01*
X15276968Y-11686722D02*
X15276968Y-11705769D01*
X15276968Y-11705769D02*
X15181730Y-11724817D01*
X15353158Y-11781960D02*
X15372206Y-11791484D01*
X15372206Y-11791484D02*
X15410301Y-11791484D01*
X15410301Y-11791484D02*
X15429349Y-11781960D01*
X15429349Y-11781960D02*
X15438872Y-11762912D01*
X15438872Y-11762912D02*
X15438872Y-11753388D01*
X15438872Y-11753388D02*
X15429349Y-11734341D01*
X15429349Y-11734341D02*
X15410301Y-11724817D01*
X15410301Y-11724817D02*
X15381730Y-11724817D01*
X15381730Y-11724817D02*
X15362682Y-11715293D01*
X15362682Y-11715293D02*
X15353158Y-11696246D01*
X15353158Y-11696246D02*
X15353158Y-11686722D01*
X15353158Y-11686722D02*
X15362682Y-11667674D01*
X15362682Y-11667674D02*
X15381730Y-11658150D01*
X15381730Y-11658150D02*
X15410301Y-11658150D01*
X15410301Y-11658150D02*
X15429349Y-11667674D01*
X15505539Y-11867674D02*
X15515063Y-11858150D01*
X15515063Y-11858150D02*
X15534111Y-11829579D01*
X15534111Y-11829579D02*
X15543634Y-11810531D01*
X15543634Y-11810531D02*
X15553158Y-11781960D01*
X15553158Y-11781960D02*
X15562682Y-11734341D01*
X15562682Y-11734341D02*
X15562682Y-11696246D01*
X15562682Y-11696246D02*
X15553158Y-11648627D01*
X15553158Y-11648627D02*
X15543634Y-11620055D01*
X15543634Y-11620055D02*
X15534111Y-11601008D01*
X15534111Y-11601008D02*
X15515063Y-11572436D01*
X15515063Y-11572436D02*
X15505539Y-11562912D01*
D11*
X10540000Y-11964000D02*
G75*
G02*
X10440000Y-11964000I-50000J0D01*
G01*
X10440000Y-11964000D02*
G75*
G02*
X10540000Y-11964000I50000J0D01*
G01*
D10*
X10905539Y-12055484D02*
X10791253Y-12055484D01*
X10848396Y-12055484D02*
X10848396Y-11855484D01*
X10848396Y-11855484D02*
X10829348Y-11884055D01*
X10829348Y-11884055D02*
X10810301Y-11903103D01*
X10810301Y-11903103D02*
X10791253Y-11912627D01*
X10991253Y-12036436D02*
X11000777Y-12045960D01*
X11000777Y-12045960D02*
X10991253Y-12055484D01*
X10991253Y-12055484D02*
X10981729Y-12045960D01*
X10981729Y-12045960D02*
X10991253Y-12036436D01*
X10991253Y-12036436D02*
X10991253Y-12055484D01*
X11124586Y-11855484D02*
X11143634Y-11855484D01*
X11143634Y-11855484D02*
X11162682Y-11865008D01*
X11162682Y-11865008D02*
X11172205Y-11874531D01*
X11172205Y-11874531D02*
X11181729Y-11893579D01*
X11181729Y-11893579D02*
X11191253Y-11931674D01*
X11191253Y-11931674D02*
X11191253Y-11979293D01*
X11191253Y-11979293D02*
X11181729Y-12017388D01*
X11181729Y-12017388D02*
X11172205Y-12036436D01*
X11172205Y-12036436D02*
X11162682Y-12045960D01*
X11162682Y-12045960D02*
X11143634Y-12055484D01*
X11143634Y-12055484D02*
X11124586Y-12055484D01*
X11124586Y-12055484D02*
X11105539Y-12045960D01*
X11105539Y-12045960D02*
X11096015Y-12036436D01*
X11096015Y-12036436D02*
X11086491Y-12017388D01*
X11086491Y-12017388D02*
X11076967Y-11979293D01*
X11076967Y-11979293D02*
X11076967Y-11931674D01*
X11076967Y-11931674D02*
X11086491Y-11893579D01*
X11086491Y-11893579D02*
X11096015Y-11874531D01*
X11096015Y-11874531D02*
X11105539Y-11865008D01*
X11105539Y-11865008D02*
X11124586Y-11855484D01*
X11315062Y-11855484D02*
X11334110Y-11855484D01*
X11334110Y-11855484D02*
X11353158Y-11865008D01*
X11353158Y-11865008D02*
X11362682Y-11874531D01*
X11362682Y-11874531D02*
X11372205Y-11893579D01*
X11372205Y-11893579D02*
X11381729Y-11931674D01*
X11381729Y-11931674D02*
X11381729Y-11979293D01*
X11381729Y-11979293D02*
X11372205Y-12017388D01*
X11372205Y-12017388D02*
X11362682Y-12036436D01*
X11362682Y-12036436D02*
X11353158Y-12045960D01*
X11353158Y-12045960D02*
X11334110Y-12055484D01*
X11334110Y-12055484D02*
X11315062Y-12055484D01*
X11315062Y-12055484D02*
X11296015Y-12045960D01*
X11296015Y-12045960D02*
X11286491Y-12036436D01*
X11286491Y-12036436D02*
X11276967Y-12017388D01*
X11276967Y-12017388D02*
X11267443Y-11979293D01*
X11267443Y-11979293D02*
X11267443Y-11931674D01*
X11267443Y-11931674D02*
X11276967Y-11893579D01*
X11276967Y-11893579D02*
X11286491Y-11874531D01*
X11286491Y-11874531D02*
X11296015Y-11865008D01*
X11296015Y-11865008D02*
X11315062Y-11855484D01*
X11505539Y-11855484D02*
X11524586Y-11855484D01*
X11524586Y-11855484D02*
X11543634Y-11865008D01*
X11543634Y-11865008D02*
X11553158Y-11874531D01*
X11553158Y-11874531D02*
X11562682Y-11893579D01*
X11562682Y-11893579D02*
X11572205Y-11931674D01*
X11572205Y-11931674D02*
X11572205Y-11979293D01*
X11572205Y-11979293D02*
X11562682Y-12017388D01*
X11562682Y-12017388D02*
X11553158Y-12036436D01*
X11553158Y-12036436D02*
X11543634Y-12045960D01*
X11543634Y-12045960D02*
X11524586Y-12055484D01*
X11524586Y-12055484D02*
X11505539Y-12055484D01*
X11505539Y-12055484D02*
X11486491Y-12045960D01*
X11486491Y-12045960D02*
X11476967Y-12036436D01*
X11476967Y-12036436D02*
X11467443Y-12017388D01*
X11467443Y-12017388D02*
X11457920Y-11979293D01*
X11457920Y-11979293D02*
X11457920Y-11931674D01*
X11457920Y-11931674D02*
X11467443Y-11893579D01*
X11467443Y-11893579D02*
X11476967Y-11874531D01*
X11476967Y-11874531D02*
X11486491Y-11865008D01*
X11486491Y-11865008D02*
X11505539Y-11855484D01*
X11657920Y-12055484D02*
X11657920Y-11922150D01*
X11657920Y-11941198D02*
X11667443Y-11931674D01*
X11667443Y-11931674D02*
X11686491Y-11922150D01*
X11686491Y-11922150D02*
X11715063Y-11922150D01*
X11715063Y-11922150D02*
X11734110Y-11931674D01*
X11734110Y-11931674D02*
X11743634Y-11950722D01*
X11743634Y-11950722D02*
X11743634Y-12055484D01*
X11743634Y-11950722D02*
X11753158Y-11931674D01*
X11753158Y-11931674D02*
X11772205Y-11922150D01*
X11772205Y-11922150D02*
X11800777Y-11922150D01*
X11800777Y-11922150D02*
X11819824Y-11931674D01*
X11819824Y-11931674D02*
X11829348Y-11950722D01*
X11829348Y-11950722D02*
X11829348Y-12055484D01*
X11924586Y-12055484D02*
X11924586Y-11922150D01*
X11924586Y-11941198D02*
X11934110Y-11931674D01*
X11934110Y-11931674D02*
X11953158Y-11922150D01*
X11953158Y-11922150D02*
X11981729Y-11922150D01*
X11981729Y-11922150D02*
X12000777Y-11931674D01*
X12000777Y-11931674D02*
X12010301Y-11950722D01*
X12010301Y-11950722D02*
X12010301Y-12055484D01*
X12010301Y-11950722D02*
X12019824Y-11931674D01*
X12019824Y-11931674D02*
X12038872Y-11922150D01*
X12038872Y-11922150D02*
X12067443Y-11922150D01*
X12067443Y-11922150D02*
X12086491Y-11931674D01*
X12086491Y-11931674D02*
X12096015Y-11950722D01*
X12096015Y-11950722D02*
X12096015Y-12055484D01*
X12486491Y-11845960D02*
X12315063Y-12103103D01*
X12743634Y-11855484D02*
X12762682Y-11855484D01*
X12762682Y-11855484D02*
X12781729Y-11865008D01*
X12781729Y-11865008D02*
X12791253Y-11874531D01*
X12791253Y-11874531D02*
X12800777Y-11893579D01*
X12800777Y-11893579D02*
X12810301Y-11931674D01*
X12810301Y-11931674D02*
X12810301Y-11979293D01*
X12810301Y-11979293D02*
X12800777Y-12017388D01*
X12800777Y-12017388D02*
X12791253Y-12036436D01*
X12791253Y-12036436D02*
X12781729Y-12045960D01*
X12781729Y-12045960D02*
X12762682Y-12055484D01*
X12762682Y-12055484D02*
X12743634Y-12055484D01*
X12743634Y-12055484D02*
X12724586Y-12045960D01*
X12724586Y-12045960D02*
X12715063Y-12036436D01*
X12715063Y-12036436D02*
X12705539Y-12017388D01*
X12705539Y-12017388D02*
X12696015Y-11979293D01*
X12696015Y-11979293D02*
X12696015Y-11931674D01*
X12696015Y-11931674D02*
X12705539Y-11893579D01*
X12705539Y-11893579D02*
X12715063Y-11874531D01*
X12715063Y-11874531D02*
X12724586Y-11865008D01*
X12724586Y-11865008D02*
X12743634Y-11855484D01*
X12896015Y-12036436D02*
X12905539Y-12045960D01*
X12905539Y-12045960D02*
X12896015Y-12055484D01*
X12896015Y-12055484D02*
X12886491Y-12045960D01*
X12886491Y-12045960D02*
X12896015Y-12036436D01*
X12896015Y-12036436D02*
X12896015Y-12055484D01*
X13029348Y-11855484D02*
X13048396Y-11855484D01*
X13048396Y-11855484D02*
X13067444Y-11865008D01*
X13067444Y-11865008D02*
X13076967Y-11874531D01*
X13076967Y-11874531D02*
X13086491Y-11893579D01*
X13086491Y-11893579D02*
X13096015Y-11931674D01*
X13096015Y-11931674D02*
X13096015Y-11979293D01*
X13096015Y-11979293D02*
X13086491Y-12017388D01*
X13086491Y-12017388D02*
X13076967Y-12036436D01*
X13076967Y-12036436D02*
X13067444Y-12045960D01*
X13067444Y-12045960D02*
X13048396Y-12055484D01*
X13048396Y-12055484D02*
X13029348Y-12055484D01*
X13029348Y-12055484D02*
X13010301Y-12045960D01*
X13010301Y-12045960D02*
X13000777Y-12036436D01*
X13000777Y-12036436D02*
X12991253Y-12017388D01*
X12991253Y-12017388D02*
X12981729Y-11979293D01*
X12981729Y-11979293D02*
X12981729Y-11931674D01*
X12981729Y-11931674D02*
X12991253Y-11893579D01*
X12991253Y-11893579D02*
X13000777Y-11874531D01*
X13000777Y-11874531D02*
X13010301Y-11865008D01*
X13010301Y-11865008D02*
X13029348Y-11855484D01*
X13162682Y-11855484D02*
X13286491Y-11855484D01*
X13286491Y-11855484D02*
X13219825Y-11931674D01*
X13219825Y-11931674D02*
X13248396Y-11931674D01*
X13248396Y-11931674D02*
X13267444Y-11941198D01*
X13267444Y-11941198D02*
X13276967Y-11950722D01*
X13276967Y-11950722D02*
X13286491Y-11969769D01*
X13286491Y-11969769D02*
X13286491Y-12017388D01*
X13286491Y-12017388D02*
X13276967Y-12036436D01*
X13276967Y-12036436D02*
X13267444Y-12045960D01*
X13267444Y-12045960D02*
X13248396Y-12055484D01*
X13248396Y-12055484D02*
X13191253Y-12055484D01*
X13191253Y-12055484D02*
X13172206Y-12045960D01*
X13172206Y-12045960D02*
X13162682Y-12036436D01*
X13381729Y-12055484D02*
X13419825Y-12055484D01*
X13419825Y-12055484D02*
X13438872Y-12045960D01*
X13438872Y-12045960D02*
X13448396Y-12036436D01*
X13448396Y-12036436D02*
X13467444Y-12007865D01*
X13467444Y-12007865D02*
X13476967Y-11969769D01*
X13476967Y-11969769D02*
X13476967Y-11893579D01*
X13476967Y-11893579D02*
X13467444Y-11874531D01*
X13467444Y-11874531D02*
X13457920Y-11865008D01*
X13457920Y-11865008D02*
X13438872Y-11855484D01*
X13438872Y-11855484D02*
X13400777Y-11855484D01*
X13400777Y-11855484D02*
X13381729Y-11865008D01*
X13381729Y-11865008D02*
X13372206Y-11874531D01*
X13372206Y-11874531D02*
X13362682Y-11893579D01*
X13362682Y-11893579D02*
X13362682Y-11941198D01*
X13362682Y-11941198D02*
X13372206Y-11960246D01*
X13372206Y-11960246D02*
X13381729Y-11969769D01*
X13381729Y-11969769D02*
X13400777Y-11979293D01*
X13400777Y-11979293D02*
X13438872Y-11979293D01*
X13438872Y-11979293D02*
X13457920Y-11969769D01*
X13457920Y-11969769D02*
X13467444Y-11960246D01*
X13467444Y-11960246D02*
X13476967Y-11941198D01*
X13648396Y-11922150D02*
X13648396Y-12055484D01*
X13600777Y-11845960D02*
X13553158Y-11988817D01*
X13553158Y-11988817D02*
X13676967Y-11988817D01*
X13743634Y-11855484D02*
X13743634Y-11893579D01*
X13819825Y-11855484D02*
X13819825Y-11893579D01*
X14115063Y-12131674D02*
X14105539Y-12122150D01*
X14105539Y-12122150D02*
X14086491Y-12093579D01*
X14086491Y-12093579D02*
X14076968Y-12074531D01*
X14076968Y-12074531D02*
X14067444Y-12045960D01*
X14067444Y-12045960D02*
X14057920Y-11998341D01*
X14057920Y-11998341D02*
X14057920Y-11960246D01*
X14057920Y-11960246D02*
X14067444Y-11912627D01*
X14067444Y-11912627D02*
X14076968Y-11884055D01*
X14076968Y-11884055D02*
X14086491Y-11865008D01*
X14086491Y-11865008D02*
X14105539Y-11836436D01*
X14105539Y-11836436D02*
X14115063Y-11826912D01*
X14276968Y-11922150D02*
X14276968Y-12055484D01*
X14229348Y-11845960D02*
X14181729Y-11988817D01*
X14181729Y-11988817D02*
X14305539Y-11988817D01*
X14362682Y-11855484D02*
X14486491Y-11855484D01*
X14486491Y-11855484D02*
X14419825Y-11931674D01*
X14419825Y-11931674D02*
X14448396Y-11931674D01*
X14448396Y-11931674D02*
X14467444Y-11941198D01*
X14467444Y-11941198D02*
X14476968Y-11950722D01*
X14476968Y-11950722D02*
X14486491Y-11969769D01*
X14486491Y-11969769D02*
X14486491Y-12017388D01*
X14486491Y-12017388D02*
X14476968Y-12036436D01*
X14476968Y-12036436D02*
X14467444Y-12045960D01*
X14467444Y-12045960D02*
X14448396Y-12055484D01*
X14448396Y-12055484D02*
X14391253Y-12055484D01*
X14391253Y-12055484D02*
X14372206Y-12045960D01*
X14372206Y-12045960D02*
X14362682Y-12036436D01*
X14724587Y-12055484D02*
X14724587Y-11855484D01*
X14810301Y-12055484D02*
X14810301Y-11950722D01*
X14810301Y-11950722D02*
X14800777Y-11931674D01*
X14800777Y-11931674D02*
X14781730Y-11922150D01*
X14781730Y-11922150D02*
X14753158Y-11922150D01*
X14753158Y-11922150D02*
X14734110Y-11931674D01*
X14734110Y-11931674D02*
X14724587Y-11941198D01*
X14934110Y-12055484D02*
X14915063Y-12045960D01*
X14915063Y-12045960D02*
X14905539Y-12036436D01*
X14905539Y-12036436D02*
X14896015Y-12017388D01*
X14896015Y-12017388D02*
X14896015Y-11960246D01*
X14896015Y-11960246D02*
X14905539Y-11941198D01*
X14905539Y-11941198D02*
X14915063Y-11931674D01*
X14915063Y-11931674D02*
X14934110Y-11922150D01*
X14934110Y-11922150D02*
X14962682Y-11922150D01*
X14962682Y-11922150D02*
X14981730Y-11931674D01*
X14981730Y-11931674D02*
X14991253Y-11941198D01*
X14991253Y-11941198D02*
X15000777Y-11960246D01*
X15000777Y-11960246D02*
X15000777Y-12017388D01*
X15000777Y-12017388D02*
X14991253Y-12036436D01*
X14991253Y-12036436D02*
X14981730Y-12045960D01*
X14981730Y-12045960D02*
X14962682Y-12055484D01*
X14962682Y-12055484D02*
X14934110Y-12055484D01*
X15115063Y-12055484D02*
X15096015Y-12045960D01*
X15096015Y-12045960D02*
X15086491Y-12026912D01*
X15086491Y-12026912D02*
X15086491Y-11855484D01*
X15267444Y-12045960D02*
X15248396Y-12055484D01*
X15248396Y-12055484D02*
X15210301Y-12055484D01*
X15210301Y-12055484D02*
X15191253Y-12045960D01*
X15191253Y-12045960D02*
X15181730Y-12026912D01*
X15181730Y-12026912D02*
X15181730Y-11950722D01*
X15181730Y-11950722D02*
X15191253Y-11931674D01*
X15191253Y-11931674D02*
X15210301Y-11922150D01*
X15210301Y-11922150D02*
X15248396Y-11922150D01*
X15248396Y-11922150D02*
X15267444Y-11931674D01*
X15267444Y-11931674D02*
X15276968Y-11950722D01*
X15276968Y-11950722D02*
X15276968Y-11969769D01*
X15276968Y-11969769D02*
X15181730Y-11988817D01*
X15353158Y-12045960D02*
X15372206Y-12055484D01*
X15372206Y-12055484D02*
X15410301Y-12055484D01*
X15410301Y-12055484D02*
X15429349Y-12045960D01*
X15429349Y-12045960D02*
X15438872Y-12026912D01*
X15438872Y-12026912D02*
X15438872Y-12017388D01*
X15438872Y-12017388D02*
X15429349Y-11998341D01*
X15429349Y-11998341D02*
X15410301Y-11988817D01*
X15410301Y-11988817D02*
X15381730Y-11988817D01*
X15381730Y-11988817D02*
X15362682Y-11979293D01*
X15362682Y-11979293D02*
X15353158Y-11960246D01*
X15353158Y-11960246D02*
X15353158Y-11950722D01*
X15353158Y-11950722D02*
X15362682Y-11931674D01*
X15362682Y-11931674D02*
X15381730Y-11922150D01*
X15381730Y-11922150D02*
X15410301Y-11922150D01*
X15410301Y-11922150D02*
X15429349Y-11931674D01*
X15505539Y-12131674D02*
X15515063Y-12122150D01*
X15515063Y-12122150D02*
X15534111Y-12093579D01*
X15534111Y-12093579D02*
X15543634Y-12074531D01*
X15543634Y-12074531D02*
X15553158Y-12045960D01*
X15553158Y-12045960D02*
X15562682Y-11998341D01*
X15562682Y-11998341D02*
X15562682Y-11960246D01*
X15562682Y-11960246D02*
X15553158Y-11912627D01*
X15553158Y-11912627D02*
X15543634Y-11884055D01*
X15543634Y-11884055D02*
X15534111Y-11865008D01*
X15534111Y-11865008D02*
X15515063Y-11836436D01*
X15515063Y-11836436D02*
X15505539Y-11826912D01*
M02*
