G04 #@! TF.GenerationSoftware,KiCad,Pcbnew,10.0.5*
G04 #@! TF.CreationDate,2026-09-11T04:59:55+03:00*
G04 #@! TF.ProjectId,cardputer_c5,63617264-7075-4746-9572-5f63352e6b69,rev?*
G04 #@! TF.SameCoordinates,Original*
G04 #@! TF.FileFunction,Copper,L2,Bot*
G04 #@! TF.FilePolarity,Positive*
%FSLAX46Y46*%
G04 Gerber Fmt 4.6, Leading zero omitted, Abs format (unit mm)*
G04 Created by KiCad (PCBNEW 10.0.5) date 2026-09-11 04:59:55*
%MOMM*%
%LPD*%
G01*
G04 APERTURE LIST*
G04 Aperture macros list*
%AMRoundRect*
0 Rectangle with rounded corners*
0 $1 Rounding radius*
0 $2 $3 $4 $5 $6 $7 $8 $9 X,Y pos of 4 corners*
0 Add a 4 corners polygon primitive as box body*
4,1,4,$2,$3,$4,$5,$6,$7,$8,$9,$2,$3,0*
0 Add four circle primitives for the rounded corners*
1,1,$1+$1,$2,$3*
1,1,$1+$1,$4,$5*
1,1,$1+$1,$6,$7*
1,1,$1+$1,$8,$9*
0 Add four rect primitives between the rounded corners*
20,1,$1+$1,$2,$3,$4,$5,0*
20,1,$1+$1,$4,$5,$6,$7,0*
20,1,$1+$1,$6,$7,$8,$9,0*
20,1,$1+$1,$8,$9,$2,$3,0*%
G04 Aperture macros list end*
G04 #@! TA.AperFunction,ComponentPad*
%ADD10R,1.700000X1.700000*%
G04 #@! TD*
G04 #@! TA.AperFunction,ComponentPad*
%ADD11C,1.700000*%
G04 #@! TD*
G04 #@! TA.AperFunction,SMDPad,CuDef*
%ADD12RoundRect,0.250000X0.425000X1.600000X-0.425000X1.600000X-0.425000X-1.600000X0.425000X-1.600000X0*%
G04 #@! TD*
G04 #@! TA.AperFunction,ViaPad*
%ADD13C,0.600000*%
G04 #@! TD*
G04 #@! TA.AperFunction,ViaPad*
%ADD14C,0.500000*%
G04 #@! TD*
G04 #@! TA.AperFunction,Conductor*
%ADD15C,0.400000*%
G04 #@! TD*
G04 #@! TA.AperFunction,Conductor*
%ADD16C,0.300000*%
G04 #@! TD*
G04 #@! TA.AperFunction,Conductor*
%ADD17C,0.800000*%
G04 #@! TD*
G04 APERTURE END LIST*
D10*
G04 #@! TO.P,J7,1,Pin_1_1*
G04 #@! TO.N,/GPIO5*
X130420000Y-78500000D03*
D11*
G04 #@! TO.P,J7,2,Pin_2_2*
G04 #@! TO.N,/GPIO15*
X130420000Y-75960000D03*
G04 #@! TO.P,J7,3,Pin_3_3*
G04 #@! TO.N,/GPIO39*
X132960000Y-78500000D03*
G04 #@! TO.P,J7,4,Pin_4_4*
G04 #@! TO.N,/GPIO13*
X132960000Y-75960000D03*
G04 #@! TO.P,J7,5,Pin_5_5*
G04 #@! TO.N,/GPIO14*
X135500000Y-78500000D03*
G04 #@! TO.P,J7,6,Pin_6_6*
G04 #@! TO.N,/GPIO9*
X135500000Y-75960000D03*
G04 #@! TO.P,J7,7,Pin_7_7*
G04 #@! TO.N,/GPIO40*
X138040000Y-78500000D03*
G04 #@! TO.P,J7,8,Pin_8_8*
G04 #@! TO.N,/GPIO8*
X138040000Y-75960000D03*
G04 #@! TO.P,J7,9,Pin_9_9*
G04 #@! TO.N,/GPIO6*
X140580000Y-78500000D03*
G04 #@! TO.P,J7,10,Pin_10_10*
G04 #@! TO.N,+5V*
X140580000Y-75960000D03*
G04 #@! TO.P,J7,11,Pin_11_11*
G04 #@! TO.N,/GPIO4*
X143120000Y-78500000D03*
G04 #@! TO.P,J7,12,Pin_12_12*
G04 #@! TO.N,GNDREF*
X143120000Y-75960000D03*
G04 #@! TO.P,J7,13,Pin_13_13*
G04 #@! TO.N,/GPIO3*
X145660000Y-78500000D03*
G04 #@! TO.P,J7,14,Pin_14_14*
G04 #@! TO.N,/5VIN*
X145660000Y-75960000D03*
G04 #@! TD*
D12*
G04 #@! TO.P,J1,2,Ext_2*
G04 #@! TO.N,GNDREF*
X113900000Y-76412500D03*
X119550000Y-76412500D03*
G04 #@! TD*
G04 #@! TO.P,J3,2,Ext_2*
G04 #@! TO.N,GNDREF*
X156675000Y-76412500D03*
X162325000Y-76412500D03*
G04 #@! TD*
D10*
G04 #@! TO.P,J9,1,Pin_1_1*
G04 #@! TO.N,+3V3*
X107500000Y-106240000D03*
D11*
G04 #@! TO.P,J9,2,Pin_2_2*
G04 #@! TO.N,/D10*
X107500000Y-103700000D03*
G04 #@! TO.P,J9,3,Pin_3_3*
G04 #@! TO.N,/D9*
X107500000Y-101160000D03*
G04 #@! TO.P,J9,4,Pin_4_4*
G04 #@! TO.N,/D8*
X107500000Y-98620000D03*
G04 #@! TO.P,J9,5,Pin_5_5*
G04 #@! TO.N,/D5*
X107500000Y-96080000D03*
G04 #@! TO.P,J9,6,Pin_6_6*
G04 #@! TO.N,/D4*
X107500000Y-93540000D03*
G04 #@! TO.P,J9,7,Pin_7_7*
G04 #@! TO.N,/D3*
X107500000Y-91000000D03*
G04 #@! TO.P,J9,8,Pin_8_8*
G04 #@! TO.N,/D2*
X107500000Y-88460000D03*
G04 #@! TO.P,J9,9,Pin_9_9*
G04 #@! TO.N,/D1*
X107500000Y-85920000D03*
G04 #@! TO.P,J9,10,Pin_10_10*
G04 #@! TO.N,/D0*
X107500000Y-83380000D03*
G04 #@! TD*
D10*
G04 #@! TO.P,J6,1,Pin_1_1*
G04 #@! TO.N,unconnected-(J6-Pin_1-Pad1)*
X125540000Y-106500000D03*
D11*
G04 #@! TO.P,J6,2,Pin_2_2*
G04 #@! TO.N,/GPSRX*
X123000000Y-106500000D03*
G04 #@! TO.P,J6,3,Pin_3_3*
G04 #@! TO.N,/GPSTX*
X120460000Y-106500000D03*
G04 #@! TO.P,J6,4,Pin_4_4*
G04 #@! TO.N,GNDREF*
X117920000Y-106500000D03*
G04 #@! TO.P,J6,5,Pin_5_5*
G04 #@! TO.N,+5V*
X115380000Y-106500000D03*
G04 #@! TD*
D10*
G04 #@! TO.P,J8,1,Pin_1_1*
G04 #@! TO.N,/GPIO5*
X130460000Y-100000000D03*
D11*
G04 #@! TO.P,J8,2,Pin_2_2*
G04 #@! TO.N,/GPIO15*
X130460000Y-97460000D03*
G04 #@! TO.P,J8,3,Pin_3_3*
G04 #@! TO.N,/GPIO39*
X133000000Y-100000000D03*
G04 #@! TO.P,J8,4,Pin_4_4*
G04 #@! TO.N,/GPIO13*
X133000000Y-97460000D03*
G04 #@! TO.P,J8,5,Pin_5_5*
G04 #@! TO.N,/GPIO14*
X135540000Y-100000000D03*
G04 #@! TO.P,J8,6,Pin_6_6*
G04 #@! TO.N,/GPIO9*
X135540000Y-97460000D03*
G04 #@! TO.P,J8,7,Pin_7_7*
G04 #@! TO.N,/GPIO40*
X138080000Y-100000000D03*
G04 #@! TO.P,J8,8,Pin_8_8*
G04 #@! TO.N,/GPIO8*
X138080000Y-97460000D03*
G04 #@! TO.P,J8,9,Pin_9_9*
G04 #@! TO.N,/GPIO6*
X140620000Y-100000000D03*
G04 #@! TO.P,J8,10,Pin_10_10*
G04 #@! TO.N,+5V*
X140620000Y-97460000D03*
G04 #@! TO.P,J8,11,Pin_11_11*
G04 #@! TO.N,/GPIO4*
X143160000Y-100000000D03*
G04 #@! TO.P,J8,12,Pin_12_12*
G04 #@! TO.N,GNDREF*
X143160000Y-97460000D03*
G04 #@! TO.P,J8,13,Pin_13_13*
G04 #@! TO.N,/GPIO3*
X145700000Y-100000000D03*
G04 #@! TO.P,J8,14,Pin_14_14*
G04 #@! TO.N,/5VIN*
X145700000Y-97460000D03*
G04 #@! TD*
D13*
G04 #@! TO.N,/XAIO_TX*
X149000000Y-105000000D03*
X150000000Y-104000000D03*
D14*
G04 #@! TO.N,/GPIO15*
X142000000Y-106000000D03*
X134000000Y-105000000D03*
G04 #@! TO.N,/GPIO13*
X147000000Y-105500000D03*
X131000000Y-105500000D03*
D13*
G04 #@! TO.N,+5V*
X141750000Y-101000000D03*
X143750000Y-85500000D03*
G04 #@! TO.N,GNDREF*
X151500000Y-79250000D03*
X154750000Y-103000000D03*
X151750000Y-104000000D03*
X143500000Y-98500000D03*
X144370000Y-77210000D03*
X127750000Y-78000000D03*
X149250000Y-93500000D03*
X148750000Y-100750000D03*
G04 #@! TO.N,+3V3*
X163750000Y-84000000D03*
G04 #@! TO.N,/D10*
X158500000Y-105500000D03*
G04 #@! TO.N,/D9*
X156000000Y-105500000D03*
G04 #@! TO.N,/D8*
X153250000Y-105500000D03*
G04 #@! TO.N,/D5*
X153800000Y-88750000D03*
G04 #@! TO.N,/D4*
X156340000Y-88750000D03*
G04 #@! TO.N,/D3*
X158880000Y-88880000D03*
G04 #@! TO.N,/D2*
X161420000Y-88920000D03*
G04 #@! TO.N,/D1*
X163750000Y-88750000D03*
G04 #@! TO.N,/D0*
X165750000Y-88500000D03*
G04 #@! TD*
G04 #@! TO.N,/XAIO_TX*
D15*
X150000000Y-104000000D02*
X149000000Y-105000000D01*
G04 #@! TO.N,/GPIO15*
D16*
X135000000Y-106000000D02*
X134000000Y-105000000D01*
X131920000Y-96000000D02*
X133500000Y-96000000D01*
X133500000Y-96000000D02*
X134200000Y-96700000D01*
X142000000Y-106000000D02*
X135000000Y-106000000D01*
X134200000Y-104800000D02*
X134000000Y-105000000D01*
X134200000Y-96700000D02*
X134200000Y-104800000D01*
X130460000Y-97460000D02*
X131920000Y-96000000D01*
G04 #@! TO.N,/GPIO13*
X133000000Y-97460000D02*
X131660000Y-98800000D01*
X145900000Y-106600000D02*
X132100000Y-106600000D01*
X147000000Y-105500000D02*
X145900000Y-106600000D01*
X131660000Y-104840000D02*
X131000000Y-105500000D01*
X132100000Y-106600000D02*
X131000000Y-105500000D01*
X131660000Y-98800000D02*
X131660000Y-104840000D01*
G04 #@! TO.N,+5V*
D15*
X140620000Y-97460000D02*
X141870000Y-98710000D01*
X140580000Y-75960000D02*
X141870000Y-77250000D01*
X143750000Y-81250000D02*
X143750000Y-82750000D01*
X141870000Y-79370000D02*
X143750000Y-81250000D01*
D17*
X143750000Y-85500000D02*
X143750000Y-82750000D01*
D15*
X141870000Y-100880000D02*
X141750000Y-101000000D01*
X141870000Y-98710000D02*
X141870000Y-100880000D01*
X141870000Y-77250000D02*
X141870000Y-79370000D01*
G04 #@! TO.N,GNDREF*
X143750000Y-98750000D02*
X146750000Y-98750000D01*
X143500000Y-98500000D02*
X143750000Y-98750000D01*
X146750000Y-98750000D02*
X148750000Y-100750000D01*
G04 #@! TO.N,+3V3*
X110010000Y-108750000D02*
X162000000Y-108750000D01*
X167750000Y-103000000D02*
X167750000Y-88000000D01*
X107500000Y-106240000D02*
X110010000Y-108750000D01*
X162000000Y-108750000D02*
X167750000Y-103000000D01*
X167750000Y-88000000D02*
X163750000Y-84000000D01*
G04 #@! TO.N,/D10*
X156250000Y-107750000D02*
X158500000Y-105500000D01*
X125250000Y-102250000D02*
X130750000Y-107750000D01*
X107500000Y-103700000D02*
X108950000Y-102250000D01*
X130750000Y-107750000D02*
X156250000Y-107750000D01*
X108950000Y-102250000D02*
X125250000Y-102250000D01*
G04 #@! TO.N,/D9*
X131730761Y-107150000D02*
X125740761Y-101160000D01*
X156000000Y-105500000D02*
X154350000Y-107150000D01*
X125740761Y-101160000D02*
X107500000Y-101160000D01*
X154350000Y-107150000D02*
X131730761Y-107150000D01*
G04 #@! TO.N,/D8*
X153250000Y-105500000D02*
X153250000Y-103242233D01*
X110670000Y-95450000D02*
X107500000Y-98620000D01*
X145457767Y-95450000D02*
X110670000Y-95450000D01*
X153250000Y-103242233D02*
X145457767Y-95450000D01*
G04 #@! TO.N,/D5*
X112500000Y-88250000D02*
X112500000Y-91080000D01*
X135880000Y-86380000D02*
X114370000Y-86380000D01*
X114370000Y-86380000D02*
X112500000Y-88250000D01*
X112500000Y-91080000D02*
X107500000Y-96080000D01*
X152800000Y-89750000D02*
X139250000Y-89750000D01*
X153800000Y-88750000D02*
X152800000Y-89750000D01*
X139250000Y-89750000D02*
X135880000Y-86380000D01*
G04 #@! TO.N,/D4*
X156340000Y-88750000D02*
X154640000Y-87050000D01*
X154640000Y-87050000D02*
X152498528Y-87050000D01*
X152498528Y-87050000D02*
X150548528Y-89000000D01*
X111000000Y-87750000D02*
X111000000Y-90040000D01*
X111000000Y-90040000D02*
X107500000Y-93540000D01*
X113000000Y-85780000D02*
X111030000Y-87750000D01*
X111030000Y-87750000D02*
X111000000Y-87750000D01*
X137135888Y-85780000D02*
X113000000Y-85780000D01*
X140355888Y-89000000D02*
X137135888Y-85780000D01*
X150548528Y-89000000D02*
X140355888Y-89000000D01*
G04 #@! TO.N,/D3*
X158880000Y-88380000D02*
X156950000Y-86450000D01*
X109000000Y-88250000D02*
X109000000Y-89500000D01*
X109000000Y-89500000D02*
X107500000Y-91000000D01*
X150400000Y-88300000D02*
X140504416Y-88300000D01*
X152250000Y-86450000D02*
X150400000Y-88300000D01*
X158880000Y-88880000D02*
X158880000Y-88380000D01*
X112070000Y-85180000D02*
X109000000Y-88250000D01*
X156950000Y-86450000D02*
X152250000Y-86450000D01*
X137384416Y-85180000D02*
X112070000Y-85180000D01*
X140504416Y-88300000D02*
X137384416Y-85180000D01*
G04 #@! TO.N,/D2*
X140752944Y-87700000D02*
X149997056Y-87700000D01*
X137632944Y-84580000D02*
X140752944Y-87700000D01*
X158350000Y-85850000D02*
X161420000Y-88920000D01*
X111380000Y-84580000D02*
X137632944Y-84580000D01*
X149997056Y-87700000D02*
X151847056Y-85850000D01*
X107500000Y-88460000D02*
X111380000Y-84580000D01*
X151847056Y-85850000D02*
X158350000Y-85850000D01*
G04 #@! TO.N,/D1*
X109440000Y-83980000D02*
X107500000Y-85920000D01*
X141001472Y-87100000D02*
X137881472Y-83980000D01*
X151598528Y-85250000D02*
X149748528Y-87100000D01*
X161000000Y-85250000D02*
X151598528Y-85250000D01*
X137881472Y-83980000D02*
X109440000Y-83980000D01*
X149748528Y-87100000D02*
X141001472Y-87100000D01*
X163750000Y-88000000D02*
X161000000Y-85250000D01*
X163750000Y-88750000D02*
X163750000Y-88000000D01*
G04 #@! TO.N,/D0*
X161750000Y-84500000D02*
X151500000Y-84500000D01*
X138130000Y-83380000D02*
X107500000Y-83380000D01*
X141250000Y-86500000D02*
X138130000Y-83380000D01*
X149500000Y-86500000D02*
X141250000Y-86500000D01*
X165750000Y-88500000D02*
X161750000Y-84500000D01*
X151500000Y-84500000D02*
X149500000Y-86500000D01*
G04 #@! TD*
G04 #@! TA.AperFunction,Conductor*
G04 #@! TO.N,GNDREF*
G36*
X155458601Y-74520185D02*
G01*
X155504356Y-74572989D01*
X155514300Y-74642147D01*
X155511709Y-74653145D01*
X155511911Y-74653189D01*
X155510493Y-74659809D01*
X155500000Y-74762513D01*
X155500000Y-76162500D01*
X157849999Y-76162500D01*
X157849999Y-74762528D01*
X157849998Y-74762513D01*
X157839505Y-74659798D01*
X157838089Y-74653181D01*
X157840363Y-74652694D01*
X157838327Y-74593690D01*
X157874051Y-74533644D01*
X157936568Y-74502444D01*
X157958438Y-74500500D01*
X161041562Y-74500500D01*
X161108601Y-74520185D01*
X161154356Y-74572989D01*
X161164300Y-74642147D01*
X161161709Y-74653145D01*
X161161911Y-74653189D01*
X161160493Y-74659809D01*
X161150000Y-74762513D01*
X161150000Y-76162500D01*
X163499999Y-76162500D01*
X163499999Y-74762528D01*
X163499998Y-74762513D01*
X163489505Y-74659798D01*
X163488089Y-74653181D01*
X163490363Y-74652694D01*
X163488327Y-74593690D01*
X163524051Y-74533644D01*
X163586568Y-74502444D01*
X163608438Y-74500500D01*
X166934108Y-74500500D01*
X166996949Y-74500500D01*
X167003032Y-74500648D01*
X167336929Y-74517052D01*
X167349037Y-74518245D01*
X167362116Y-74520185D01*
X167676699Y-74566849D01*
X167688617Y-74569219D01*
X168009951Y-74649709D01*
X168021588Y-74653240D01*
X168092806Y-74678722D01*
X168333467Y-74764832D01*
X168344688Y-74769479D01*
X168644163Y-74911120D01*
X168654871Y-74916844D01*
X168927436Y-75080213D01*
X168938988Y-75087137D01*
X168949103Y-75093895D01*
X169175099Y-75261505D01*
X169215170Y-75291224D01*
X169224576Y-75298944D01*
X169470013Y-75521395D01*
X169478604Y-75529986D01*
X169665755Y-75736475D01*
X169701055Y-75775423D01*
X169708775Y-75784829D01*
X169906102Y-76050893D01*
X169912862Y-76061011D01*
X170046547Y-76284052D01*
X170083148Y-76345116D01*
X170088883Y-76355844D01*
X170208266Y-76608259D01*
X170230514Y-76655297D01*
X170235170Y-76666540D01*
X170346759Y-76978411D01*
X170350292Y-76990055D01*
X170430777Y-77311369D01*
X170433151Y-77323305D01*
X170481754Y-77650962D01*
X170482947Y-77663071D01*
X170499351Y-77996966D01*
X170499500Y-78003051D01*
X170499500Y-106496948D01*
X170499351Y-106503033D01*
X170482947Y-106836928D01*
X170481754Y-106849037D01*
X170433151Y-107176694D01*
X170430777Y-107188630D01*
X170350292Y-107509944D01*
X170346759Y-107521588D01*
X170235170Y-107833459D01*
X170230514Y-107844702D01*
X170088885Y-108144151D01*
X170083148Y-108154883D01*
X169912862Y-108438988D01*
X169906102Y-108449106D01*
X169708775Y-108715170D01*
X169701055Y-108724576D01*
X169478611Y-108970006D01*
X169470006Y-108978611D01*
X169224576Y-109201055D01*
X169215170Y-109208775D01*
X168949106Y-109406102D01*
X168938988Y-109412862D01*
X168654883Y-109583148D01*
X168644151Y-109588885D01*
X168344702Y-109730514D01*
X168333459Y-109735170D01*
X168021588Y-109846759D01*
X168009944Y-109850292D01*
X167688630Y-109930777D01*
X167676694Y-109933151D01*
X167349037Y-109981754D01*
X167336928Y-109982947D01*
X167021989Y-109998419D01*
X167003031Y-109999351D01*
X166996949Y-109999500D01*
X109503051Y-109999500D01*
X109496968Y-109999351D01*
X109476900Y-109998365D01*
X109163071Y-109982947D01*
X109150962Y-109981754D01*
X108823305Y-109933151D01*
X108811369Y-109930777D01*
X108490055Y-109850292D01*
X108478411Y-109846759D01*
X108166540Y-109735170D01*
X108155301Y-109730515D01*
X107855844Y-109588883D01*
X107845121Y-109583150D01*
X107623806Y-109450500D01*
X107561011Y-109412862D01*
X107550893Y-109406102D01*
X107284829Y-109208775D01*
X107275423Y-109201055D01*
X107236475Y-109165755D01*
X107029986Y-108978604D01*
X107021395Y-108970013D01*
X106798944Y-108724576D01*
X106791224Y-108715170D01*
X106593897Y-108449106D01*
X106587137Y-108438988D01*
X106416844Y-108154871D01*
X106411120Y-108144163D01*
X106269479Y-107844688D01*
X106264829Y-107833459D01*
X106256191Y-107809318D01*
X106204950Y-107666110D01*
X106200900Y-107596359D01*
X106235202Y-107535490D01*
X106296968Y-107502829D01*
X106366587Y-107508746D01*
X106396014Y-107525071D01*
X106407668Y-107533795D01*
X106407671Y-107533797D01*
X106542517Y-107584091D01*
X106542516Y-107584091D01*
X106549444Y-107584835D01*
X106602127Y-107590500D01*
X107808480Y-107590499D01*
X107875519Y-107610184D01*
X107896161Y-107626818D01*
X109563453Y-109294111D01*
X109563454Y-109294112D01*
X109678192Y-109370777D01*
X109763476Y-109406102D01*
X109805672Y-109423580D01*
X109805676Y-109423580D01*
X109805677Y-109423581D01*
X109941003Y-109450500D01*
X109941006Y-109450500D01*
X162068996Y-109450500D01*
X162160040Y-109432389D01*
X162204328Y-109423580D01*
X162268069Y-109397177D01*
X162331807Y-109370777D01*
X162331808Y-109370776D01*
X162331811Y-109370775D01*
X162446543Y-109294114D01*
X168294114Y-103446543D01*
X168370775Y-103331811D01*
X168423580Y-103204328D01*
X168450500Y-103068994D01*
X168450500Y-102931006D01*
X168450500Y-87931007D01*
X168425129Y-87803457D01*
X168425129Y-87803455D01*
X168425129Y-87803454D01*
X168423580Y-87795673D01*
X168423579Y-87795669D01*
X168370776Y-87668190D01*
X168294112Y-87553454D01*
X168294111Y-87553453D01*
X164546071Y-83805414D01*
X164519191Y-83765185D01*
X164459397Y-83620827D01*
X164459390Y-83620814D01*
X164371789Y-83489711D01*
X164371786Y-83489707D01*
X164260292Y-83378213D01*
X164260288Y-83378210D01*
X164129185Y-83290609D01*
X164129172Y-83290602D01*
X163983501Y-83230264D01*
X163983489Y-83230261D01*
X163828845Y-83199500D01*
X163828842Y-83199500D01*
X163671158Y-83199500D01*
X163671155Y-83199500D01*
X163516510Y-83230261D01*
X163516498Y-83230264D01*
X163370827Y-83290602D01*
X163370814Y-83290609D01*
X163239711Y-83378210D01*
X163239707Y-83378213D01*
X163128213Y-83489707D01*
X163128210Y-83489711D01*
X163040609Y-83620814D01*
X163040602Y-83620827D01*
X162980264Y-83766498D01*
X162980261Y-83766510D01*
X162949500Y-83921153D01*
X162949500Y-84078846D01*
X162980261Y-84233489D01*
X162980264Y-84233501D01*
X163040602Y-84379172D01*
X163040609Y-84379185D01*
X163128210Y-84510288D01*
X163128213Y-84510292D01*
X163239707Y-84621786D01*
X163239711Y-84621789D01*
X163370814Y-84709390D01*
X163370827Y-84709397D01*
X163515185Y-84769191D01*
X163555414Y-84796071D01*
X167013181Y-88253838D01*
X167046666Y-88315161D01*
X167049500Y-88341519D01*
X167049500Y-102658481D01*
X167029815Y-102725520D01*
X167013181Y-102746162D01*
X161746162Y-108013181D01*
X161684839Y-108046666D01*
X161658481Y-108049500D01*
X157240519Y-108049500D01*
X157173480Y-108029815D01*
X157127725Y-107977011D01*
X157117781Y-107907853D01*
X157146806Y-107844297D01*
X157152838Y-107837819D01*
X157533175Y-107457482D01*
X158694586Y-106296069D01*
X158734810Y-106269192D01*
X158837208Y-106226779D01*
X158879173Y-106209397D01*
X158879176Y-106209395D01*
X158879179Y-106209394D01*
X159010289Y-106121789D01*
X159121789Y-106010289D01*
X159209394Y-105879179D01*
X159213803Y-105868536D01*
X159241570Y-105801499D01*
X159269737Y-105733497D01*
X159300500Y-105578842D01*
X159300500Y-105421158D01*
X159300500Y-105421155D01*
X159300499Y-105421153D01*
X159297816Y-105407664D01*
X159269737Y-105266503D01*
X159256062Y-105233489D01*
X159209397Y-105120827D01*
X159209390Y-105120814D01*
X159121789Y-104989711D01*
X159121786Y-104989707D01*
X159010292Y-104878213D01*
X159010288Y-104878210D01*
X158879185Y-104790609D01*
X158879172Y-104790602D01*
X158733501Y-104730264D01*
X158733489Y-104730261D01*
X158578845Y-104699500D01*
X158578842Y-104699500D01*
X158421158Y-104699500D01*
X158421155Y-104699500D01*
X158266510Y-104730261D01*
X158266498Y-104730264D01*
X158120827Y-104790602D01*
X158120814Y-104790609D01*
X157989711Y-104878210D01*
X157989707Y-104878213D01*
X157878213Y-104989707D01*
X157878210Y-104989711D01*
X157790609Y-105120814D01*
X157790604Y-105120823D01*
X157730809Y-105265184D01*
X157703929Y-105305412D01*
X155996162Y-107013181D01*
X155934839Y-107046666D01*
X155908481Y-107049500D01*
X155740519Y-107049500D01*
X155673480Y-107029815D01*
X155627725Y-106977011D01*
X155617781Y-106907853D01*
X155646806Y-106844297D01*
X155652838Y-106837819D01*
X155766207Y-106724448D01*
X156194587Y-106296068D01*
X156234808Y-106269193D01*
X156379179Y-106209394D01*
X156510289Y-106121789D01*
X156621789Y-106010289D01*
X156709394Y-105879179D01*
X156713803Y-105868536D01*
X156741570Y-105801499D01*
X156769737Y-105733497D01*
X156800500Y-105578842D01*
X156800500Y-105421158D01*
X156800500Y-105421155D01*
X156800499Y-105421153D01*
X156797816Y-105407664D01*
X156769737Y-105266503D01*
X156756062Y-105233489D01*
X156709397Y-105120827D01*
X156709390Y-105120814D01*
X156621789Y-104989711D01*
X156621786Y-104989707D01*
X156510292Y-104878213D01*
X156510288Y-104878210D01*
X156379185Y-104790609D01*
X156379172Y-104790602D01*
X156233501Y-104730264D01*
X156233489Y-104730261D01*
X156078845Y-104699500D01*
X156078842Y-104699500D01*
X155921158Y-104699500D01*
X155921155Y-104699500D01*
X155766510Y-104730261D01*
X155766498Y-104730264D01*
X155620827Y-104790602D01*
X155620814Y-104790609D01*
X155489711Y-104878210D01*
X155489707Y-104878213D01*
X155378213Y-104989707D01*
X155378210Y-104989711D01*
X155290609Y-105120814D01*
X155290604Y-105120824D01*
X155230808Y-105265185D01*
X155203928Y-105305413D01*
X154096162Y-106413181D01*
X154034839Y-106446666D01*
X154008481Y-106449500D01*
X153672902Y-106449500D01*
X153605863Y-106429815D01*
X153560108Y-106377011D01*
X153550164Y-106307853D01*
X153579189Y-106244297D01*
X153625451Y-106210938D01*
X153629179Y-106209394D01*
X153760289Y-106121789D01*
X153871789Y-106010289D01*
X153959394Y-105879179D01*
X153963803Y-105868536D01*
X153991570Y-105801499D01*
X154019737Y-105733497D01*
X154050500Y-105578842D01*
X154050500Y-105421158D01*
X154050500Y-105421155D01*
X154050499Y-105421153D01*
X154047816Y-105407664D01*
X154019737Y-105266503D01*
X154006062Y-105233489D01*
X153959939Y-105122136D01*
X153950500Y-105074684D01*
X153950500Y-103173237D01*
X153923581Y-103037910D01*
X153923580Y-103037909D01*
X153923580Y-103037905D01*
X153887376Y-102950500D01*
X153870778Y-102910428D01*
X153870771Y-102910415D01*
X153810496Y-102820208D01*
X153794114Y-102795690D01*
X153794111Y-102795687D01*
X145904313Y-94905888D01*
X145904312Y-94905887D01*
X145789574Y-94829222D01*
X145662099Y-94776421D01*
X145662089Y-94776418D01*
X145526763Y-94749500D01*
X145526761Y-94749500D01*
X145526760Y-94749500D01*
X110738994Y-94749500D01*
X110601006Y-94749500D01*
X110601004Y-94749500D01*
X110465677Y-94776418D01*
X110465667Y-94776421D01*
X110338192Y-94829222D01*
X110223454Y-94905887D01*
X110223453Y-94905888D01*
X109062181Y-96067161D01*
X109000858Y-96100646D01*
X108931166Y-96095662D01*
X108875233Y-96053790D01*
X108850816Y-95988326D01*
X108850500Y-95979480D01*
X108850500Y-95973713D01*
X108825715Y-95817227D01*
X108834670Y-95747933D01*
X108860504Y-95710151D01*
X113044114Y-91526543D01*
X113120775Y-91411811D01*
X113173580Y-91284328D01*
X113200500Y-91148994D01*
X113200500Y-91011006D01*
X113200500Y-88591518D01*
X113220185Y-88524479D01*
X113236819Y-88503837D01*
X114623837Y-87116819D01*
X114685160Y-87083334D01*
X114711518Y-87080500D01*
X135538481Y-87080500D01*
X135605520Y-87100185D01*
X135626162Y-87116819D01*
X138803453Y-90294111D01*
X138803454Y-90294112D01*
X138918192Y-90370777D01*
X139039091Y-90420854D01*
X139045672Y-90423580D01*
X139045676Y-90423580D01*
X139045677Y-90423581D01*
X139181003Y-90450500D01*
X139181006Y-90450500D01*
X152868996Y-90450500D01*
X152960040Y-90432389D01*
X153004328Y-90423580D01*
X153083708Y-90390700D01*
X153131807Y-90370777D01*
X153131808Y-90370776D01*
X153131811Y-90370775D01*
X153246543Y-90294114D01*
X153994586Y-89546069D01*
X154034810Y-89519192D01*
X154105038Y-89490104D01*
X154179173Y-89459397D01*
X154179176Y-89459395D01*
X154179179Y-89459394D01*
X154310289Y-89371789D01*
X154421789Y-89260289D01*
X154509394Y-89129179D01*
X154569737Y-88983497D01*
X154600500Y-88828842D01*
X154600500Y-88671158D01*
X154600500Y-88671155D01*
X154600499Y-88671153D01*
X154584659Y-88591519D01*
X154569737Y-88516503D01*
X154557039Y-88485847D01*
X154509397Y-88370827D01*
X154509390Y-88370814D01*
X154421789Y-88239711D01*
X154421786Y-88239707D01*
X154310292Y-88128213D01*
X154310288Y-88128210D01*
X154179185Y-88040609D01*
X154179172Y-88040602D01*
X154054738Y-87989061D01*
X154000334Y-87945221D01*
X153978269Y-87878926D01*
X153995548Y-87811227D01*
X154046685Y-87763616D01*
X154102190Y-87750500D01*
X154298481Y-87750500D01*
X154365520Y-87770185D01*
X154386162Y-87786819D01*
X155543928Y-88944585D01*
X155570808Y-88984814D01*
X155630602Y-89129172D01*
X155630609Y-89129185D01*
X155718210Y-89260288D01*
X155718213Y-89260292D01*
X155829707Y-89371786D01*
X155829711Y-89371789D01*
X155960814Y-89459390D01*
X155960827Y-89459397D01*
X156063165Y-89501786D01*
X156106503Y-89519737D01*
X156238897Y-89546072D01*
X156261153Y-89550499D01*
X156261156Y-89550500D01*
X156261158Y-89550500D01*
X156418844Y-89550500D01*
X156418845Y-89550499D01*
X156573497Y-89519737D01*
X156719179Y-89459394D01*
X156850289Y-89371789D01*
X156961789Y-89260289D01*
X157049394Y-89129179D01*
X157109737Y-88983497D01*
X157140500Y-88828842D01*
X157140500Y-88671158D01*
X157140500Y-88671155D01*
X157140499Y-88671153D01*
X157124659Y-88591519D01*
X157109737Y-88516503D01*
X157097039Y-88485847D01*
X157049397Y-88370827D01*
X157049390Y-88370814D01*
X156961789Y-88239711D01*
X156961786Y-88239707D01*
X156850292Y-88128213D01*
X156850288Y-88128210D01*
X156719185Y-88040609D01*
X156719172Y-88040602D01*
X156574814Y-87980808D01*
X156534585Y-87953928D01*
X155942838Y-87362181D01*
X155909353Y-87300858D01*
X155914337Y-87231166D01*
X155956209Y-87175233D01*
X156021673Y-87150816D01*
X156030519Y-87150500D01*
X156608481Y-87150500D01*
X156675520Y-87170185D01*
X156696162Y-87186819D01*
X158070958Y-88561615D01*
X158104443Y-88622938D01*
X158104894Y-88673487D01*
X158079500Y-88801153D01*
X158079500Y-88958846D01*
X158110261Y-89113489D01*
X158110264Y-89113501D01*
X158170602Y-89259172D01*
X158170609Y-89259185D01*
X158258210Y-89390288D01*
X158258213Y-89390292D01*
X158369707Y-89501786D01*
X158369711Y-89501789D01*
X158500814Y-89589390D01*
X158500827Y-89589397D01*
X158646498Y-89649735D01*
X158646503Y-89649737D01*
X158801153Y-89680499D01*
X158801156Y-89680500D01*
X158801158Y-89680500D01*
X158958844Y-89680500D01*
X158958845Y-89680499D01*
X159113497Y-89649737D01*
X159259179Y-89589394D01*
X159390289Y-89501789D01*
X159501789Y-89390289D01*
X159589394Y-89259179D01*
X159649737Y-89113497D01*
X159680500Y-88958842D01*
X159680500Y-88801158D01*
X159680500Y-88801155D01*
X159680499Y-88801153D01*
X159657695Y-88686510D01*
X159649737Y-88646503D01*
X159605965Y-88540827D01*
X159589939Y-88502136D01*
X159580500Y-88454684D01*
X159580500Y-88370519D01*
X159600185Y-88303480D01*
X159652989Y-88257725D01*
X159722147Y-88247781D01*
X159785703Y-88276806D01*
X159792181Y-88282838D01*
X160623928Y-89114585D01*
X160650808Y-89154814D01*
X160710602Y-89299172D01*
X160710609Y-89299185D01*
X160798210Y-89430288D01*
X160798213Y-89430292D01*
X160909707Y-89541786D01*
X160909711Y-89541789D01*
X161040814Y-89629390D01*
X161040827Y-89629397D01*
X161186498Y-89689735D01*
X161186503Y-89689737D01*
X161296199Y-89711557D01*
X161341153Y-89720499D01*
X161341156Y-89720500D01*
X161341158Y-89720500D01*
X161498844Y-89720500D01*
X161498845Y-89720499D01*
X161653497Y-89689737D01*
X161799179Y-89629394D01*
X161930289Y-89541789D01*
X162041789Y-89430289D01*
X162129394Y-89299179D01*
X162189737Y-89153497D01*
X162220500Y-88998842D01*
X162220500Y-88841158D01*
X162220500Y-88841155D01*
X162220499Y-88841153D01*
X162212542Y-88801153D01*
X162189737Y-88686503D01*
X162183379Y-88671153D01*
X162129397Y-88540827D01*
X162129390Y-88540814D01*
X162041789Y-88409711D01*
X162041786Y-88409707D01*
X161930292Y-88298213D01*
X161930288Y-88298210D01*
X161799185Y-88210609D01*
X161799172Y-88210602D01*
X161654814Y-88150808D01*
X161614585Y-88123928D01*
X159652838Y-86162181D01*
X159619353Y-86100858D01*
X159624337Y-86031166D01*
X159666209Y-85975233D01*
X159731673Y-85950816D01*
X159740519Y-85950500D01*
X160658481Y-85950500D01*
X160725520Y-85970185D01*
X160746162Y-85986819D01*
X163008250Y-88248907D01*
X163041735Y-88310230D01*
X163036751Y-88379922D01*
X163035130Y-88384040D01*
X162980264Y-88516498D01*
X162980261Y-88516510D01*
X162949500Y-88671153D01*
X162949500Y-88828846D01*
X162980261Y-88983489D01*
X162980264Y-88983501D01*
X163040602Y-89129172D01*
X163040609Y-89129185D01*
X163128210Y-89260288D01*
X163128213Y-89260292D01*
X163239707Y-89371786D01*
X163239711Y-89371789D01*
X163370814Y-89459390D01*
X163370827Y-89459397D01*
X163473165Y-89501786D01*
X163516503Y-89519737D01*
X163648897Y-89546072D01*
X163671153Y-89550499D01*
X163671156Y-89550500D01*
X163671158Y-89550500D01*
X163828844Y-89550500D01*
X163828845Y-89550499D01*
X163983497Y-89519737D01*
X164129179Y-89459394D01*
X164260289Y-89371789D01*
X164371789Y-89260289D01*
X164459394Y-89129179D01*
X164519737Y-88983497D01*
X164550500Y-88828842D01*
X164550500Y-88671158D01*
X164550500Y-88671155D01*
X164535892Y-88597720D01*
X164542119Y-88528129D01*
X164584981Y-88472951D01*
X164650871Y-88449706D01*
X164718868Y-88465773D01*
X164745190Y-88485847D01*
X164953928Y-88694585D01*
X164980808Y-88734814D01*
X165040602Y-88879172D01*
X165040609Y-88879185D01*
X165128210Y-89010288D01*
X165128213Y-89010292D01*
X165239707Y-89121786D01*
X165239711Y-89121789D01*
X165370814Y-89209390D01*
X165370827Y-89209397D01*
X165516498Y-89269735D01*
X165516503Y-89269737D01*
X165664482Y-89299172D01*
X165671153Y-89300499D01*
X165671156Y-89300500D01*
X165671158Y-89300500D01*
X165828844Y-89300500D01*
X165828845Y-89300499D01*
X165983497Y-89269737D01*
X166129179Y-89209394D01*
X166260289Y-89121789D01*
X166371789Y-89010289D01*
X166459394Y-88879179D01*
X166519737Y-88733497D01*
X166550500Y-88578842D01*
X166550500Y-88421158D01*
X166550500Y-88421155D01*
X166550499Y-88421153D01*
X166543117Y-88384040D01*
X166519737Y-88266503D01*
X166508974Y-88240519D01*
X166459397Y-88120827D01*
X166459390Y-88120814D01*
X166371789Y-87989711D01*
X166371786Y-87989707D01*
X166260292Y-87878213D01*
X166260288Y-87878210D01*
X166129185Y-87790609D01*
X166129172Y-87790602D01*
X165984814Y-87730808D01*
X165944585Y-87703928D01*
X162196546Y-83955888D01*
X162196545Y-83955887D01*
X162081807Y-83879222D01*
X161954332Y-83826421D01*
X161954322Y-83826418D01*
X161818996Y-83799500D01*
X161818994Y-83799500D01*
X161818993Y-83799500D01*
X151431007Y-83799500D01*
X151431005Y-83799500D01*
X151295677Y-83826418D01*
X151295667Y-83826421D01*
X151168192Y-83879222D01*
X151053454Y-83955887D01*
X151053453Y-83955888D01*
X149246162Y-85763181D01*
X149184839Y-85796666D01*
X149158481Y-85799500D01*
X144759662Y-85799500D01*
X144692623Y-85779815D01*
X144646868Y-85727011D01*
X144636924Y-85657853D01*
X144638045Y-85651308D01*
X144650500Y-85588693D01*
X144650500Y-82661306D01*
X144650499Y-82661304D01*
X144615896Y-82487341D01*
X144615893Y-82487332D01*
X144548013Y-82323453D01*
X144548011Y-82323451D01*
X144548011Y-82323449D01*
X144471398Y-82208790D01*
X144450520Y-82142112D01*
X144450500Y-82139899D01*
X144450500Y-81181004D01*
X144423581Y-81045677D01*
X144423580Y-81045676D01*
X144423580Y-81045672D01*
X144423578Y-81045667D01*
X144370778Y-80918195D01*
X144370771Y-80918182D01*
X144294115Y-80803459D01*
X144294114Y-80803458D01*
X144196542Y-80705886D01*
X143482459Y-79991802D01*
X143448974Y-79930479D01*
X143453958Y-79860787D01*
X143495830Y-79804854D01*
X143531820Y-79786190D01*
X143638412Y-79751557D01*
X143827816Y-79655051D01*
X143914138Y-79592335D01*
X143999786Y-79530109D01*
X143999788Y-79530106D01*
X143999792Y-79530104D01*
X144150104Y-79379792D01*
X144150106Y-79379788D01*
X144150109Y-79379786D01*
X144275048Y-79207820D01*
X144275047Y-79207820D01*
X144275051Y-79207816D01*
X144279514Y-79199054D01*
X144327488Y-79148259D01*
X144395308Y-79131463D01*
X144461444Y-79153999D01*
X144500486Y-79199056D01*
X144504951Y-79207820D01*
X144629890Y-79379786D01*
X144780213Y-79530109D01*
X144952179Y-79655048D01*
X144952181Y-79655049D01*
X144952184Y-79655051D01*
X145141588Y-79751557D01*
X145343757Y-79817246D01*
X145553713Y-79850500D01*
X145553714Y-79850500D01*
X145766286Y-79850500D01*
X145766287Y-79850500D01*
X145976243Y-79817246D01*
X146178412Y-79751557D01*
X146367816Y-79655051D01*
X146454138Y-79592335D01*
X146539786Y-79530109D01*
X146539788Y-79530106D01*
X146539792Y-79530104D01*
X146690104Y-79379792D01*
X146690106Y-79379788D01*
X146690109Y-79379786D01*
X146815048Y-79207820D01*
X146815047Y-79207820D01*
X146815051Y-79207816D01*
X146911557Y-79018412D01*
X146977246Y-78816243D01*
X147010500Y-78606287D01*
X147010500Y-78393713D01*
X146977246Y-78183757D01*
X146937842Y-78062486D01*
X155500001Y-78062486D01*
X155510494Y-78165197D01*
X155565641Y-78331619D01*
X155565643Y-78331624D01*
X155657684Y-78480845D01*
X155781654Y-78604815D01*
X155930875Y-78696856D01*
X155930880Y-78696858D01*
X156097302Y-78752005D01*
X156097309Y-78752006D01*
X156200019Y-78762499D01*
X156424999Y-78762499D01*
X156925000Y-78762499D01*
X157149972Y-78762499D01*
X157149986Y-78762498D01*
X157252697Y-78752005D01*
X157419119Y-78696858D01*
X157419124Y-78696856D01*
X157568345Y-78604815D01*
X157692315Y-78480845D01*
X157784356Y-78331624D01*
X157784358Y-78331619D01*
X157839505Y-78165197D01*
X157839506Y-78165190D01*
X157849999Y-78062486D01*
X161150001Y-78062486D01*
X161160494Y-78165197D01*
X161215641Y-78331619D01*
X161215643Y-78331624D01*
X161307684Y-78480845D01*
X161431654Y-78604815D01*
X161580875Y-78696856D01*
X161580880Y-78696858D01*
X161747302Y-78752005D01*
X161747309Y-78752006D01*
X161850019Y-78762499D01*
X162074999Y-78762499D01*
X162575000Y-78762499D01*
X162799972Y-78762499D01*
X162799986Y-78762498D01*
X162902697Y-78752005D01*
X163069119Y-78696858D01*
X163069124Y-78696856D01*
X163218345Y-78604815D01*
X163342315Y-78480845D01*
X163434356Y-78331624D01*
X163434358Y-78331619D01*
X163489505Y-78165197D01*
X163489506Y-78165190D01*
X163499999Y-78062486D01*
X163500000Y-78062473D01*
X163500000Y-77849223D01*
X164199500Y-77849223D01*
X164199500Y-78150776D01*
X164199501Y-78150793D01*
X164238861Y-78449766D01*
X164316913Y-78741060D01*
X164432314Y-79019661D01*
X164432318Y-79019671D01*
X164583099Y-79280831D01*
X164766679Y-79520078D01*
X164766685Y-79520085D01*
X164979914Y-79733314D01*
X164979921Y-79733320D01*
X165219168Y-79916900D01*
X165480328Y-80067681D01*
X165480329Y-80067681D01*
X165480332Y-80067683D01*
X165666072Y-80144619D01*
X165758939Y-80183086D01*
X165758940Y-80183086D01*
X165758942Y-80183087D01*
X166050232Y-80261138D01*
X166349217Y-80300500D01*
X166349224Y-80300500D01*
X166650776Y-80300500D01*
X166650783Y-80300500D01*
X166949768Y-80261138D01*
X167241058Y-80183087D01*
X167519668Y-80067683D01*
X167780832Y-79916900D01*
X168020080Y-79733319D01*
X168233319Y-79520080D01*
X168416900Y-79280832D01*
X168567683Y-79019668D01*
X168683087Y-78741058D01*
X168761138Y-78449768D01*
X168800500Y-78150783D01*
X168800500Y-77849217D01*
X168761138Y-77550232D01*
X168683087Y-77258942D01*
X168663459Y-77211557D01*
X168610765Y-77084341D01*
X168567683Y-76980332D01*
X168555333Y-76958942D01*
X168416900Y-76719168D01*
X168233320Y-76479921D01*
X168233314Y-76479914D01*
X168020085Y-76266685D01*
X168020078Y-76266679D01*
X167780831Y-76083099D01*
X167519671Y-75932318D01*
X167519661Y-75932314D01*
X167241060Y-75816913D01*
X166949766Y-75738861D01*
X166650793Y-75699501D01*
X166650788Y-75699500D01*
X166650783Y-75699500D01*
X166349217Y-75699500D01*
X166349211Y-75699500D01*
X166349206Y-75699501D01*
X166050233Y-75738861D01*
X165758939Y-75816913D01*
X165480338Y-75932314D01*
X165480328Y-75932318D01*
X165219168Y-76083099D01*
X164979921Y-76266679D01*
X164979914Y-76266685D01*
X164766685Y-76479914D01*
X164766679Y-76479921D01*
X164583099Y-76719168D01*
X164432318Y-76980328D01*
X164432314Y-76980338D01*
X164316913Y-77258939D01*
X164238861Y-77550233D01*
X164199501Y-77849206D01*
X164199500Y-77849223D01*
X163500000Y-77849223D01*
X163500000Y-76662500D01*
X162575000Y-76662500D01*
X162575000Y-78762499D01*
X162074999Y-78762499D01*
X162075000Y-78762498D01*
X162075000Y-76662500D01*
X161150001Y-76662500D01*
X161150001Y-78062486D01*
X157849999Y-78062486D01*
X157850000Y-78062473D01*
X157850000Y-76662500D01*
X156925000Y-76662500D01*
X156925000Y-78762499D01*
X156424999Y-78762499D01*
X156425000Y-78762498D01*
X156425000Y-76662500D01*
X155500001Y-76662500D01*
X155500001Y-78062486D01*
X146937842Y-78062486D01*
X146911557Y-77981588D01*
X146815051Y-77792184D01*
X146815049Y-77792181D01*
X146815048Y-77792179D01*
X146690109Y-77620213D01*
X146539786Y-77469890D01*
X146367820Y-77344951D01*
X146367115Y-77344591D01*
X146359054Y-77340485D01*
X146308259Y-77292512D01*
X146291463Y-77224692D01*
X146313999Y-77158556D01*
X146359054Y-77119515D01*
X146367816Y-77115051D01*
X146463309Y-77045672D01*
X146539786Y-76990109D01*
X146539788Y-76990106D01*
X146539792Y-76990104D01*
X146690104Y-76839792D01*
X146690106Y-76839788D01*
X146690109Y-76839786D01*
X146744899Y-76764371D01*
X146815051Y-76667816D01*
X146911557Y-76478412D01*
X146977246Y-76276243D01*
X147010500Y-76066287D01*
X147010500Y-75853713D01*
X146977246Y-75643757D01*
X146911557Y-75441588D01*
X146815051Y-75252184D01*
X146815049Y-75252181D01*
X146815048Y-75252179D01*
X146690109Y-75080213D01*
X146539786Y-74929890D01*
X146367819Y-74804951D01*
X146367818Y-74804950D01*
X146367816Y-74804949D01*
X146230504Y-74734985D01*
X146179708Y-74687010D01*
X146162913Y-74619189D01*
X146185450Y-74553054D01*
X146240166Y-74509603D01*
X146286799Y-74500500D01*
X155391562Y-74500500D01*
X155458601Y-74520185D01*
G37*
G04 #@! TD.AperFunction*
G04 #@! TA.AperFunction,Conductor*
G36*
X124975520Y-102970185D02*
G01*
X124996162Y-102986819D01*
X129847162Y-107837819D01*
X129880647Y-107899142D01*
X129875663Y-107968834D01*
X129833791Y-108024767D01*
X129768327Y-108049184D01*
X129759481Y-108049500D01*
X126634048Y-108049500D01*
X126567009Y-108029815D01*
X126521254Y-107977011D01*
X126511310Y-107907853D01*
X126540335Y-107844297D01*
X126590715Y-107809318D01*
X126632328Y-107793797D01*
X126632327Y-107793797D01*
X126632331Y-107793796D01*
X126747546Y-107707546D01*
X126833796Y-107592331D01*
X126884091Y-107457483D01*
X126890500Y-107397873D01*
X126890499Y-105602128D01*
X126884091Y-105542517D01*
X126882810Y-105539083D01*
X126833797Y-105407671D01*
X126833793Y-105407664D01*
X126747547Y-105292455D01*
X126747544Y-105292452D01*
X126632335Y-105206206D01*
X126632328Y-105206202D01*
X126497482Y-105155908D01*
X126497483Y-105155908D01*
X126437883Y-105149501D01*
X126437881Y-105149500D01*
X126437873Y-105149500D01*
X126437864Y-105149500D01*
X124642129Y-105149500D01*
X124642123Y-105149501D01*
X124582516Y-105155908D01*
X124447671Y-105206202D01*
X124447664Y-105206206D01*
X124332455Y-105292452D01*
X124332452Y-105292455D01*
X124246206Y-105407664D01*
X124246203Y-105407669D01*
X124197189Y-105539083D01*
X124155317Y-105595016D01*
X124089853Y-105619433D01*
X124021580Y-105604581D01*
X123993326Y-105583430D01*
X123879786Y-105469890D01*
X123707820Y-105344951D01*
X123518414Y-105248444D01*
X123518413Y-105248443D01*
X123518412Y-105248443D01*
X123316243Y-105182754D01*
X123316241Y-105182753D01*
X123316240Y-105182753D01*
X123154957Y-105157208D01*
X123106287Y-105149500D01*
X122893713Y-105149500D01*
X122845042Y-105157208D01*
X122683760Y-105182753D01*
X122582672Y-105215598D01*
X122527612Y-105233489D01*
X122481585Y-105248444D01*
X122292179Y-105344951D01*
X122120213Y-105469890D01*
X121969890Y-105620213D01*
X121844949Y-105792182D01*
X121840484Y-105800946D01*
X121792509Y-105851742D01*
X121724688Y-105868536D01*
X121658553Y-105845998D01*
X121619516Y-105800946D01*
X121615050Y-105792182D01*
X121490109Y-105620213D01*
X121339786Y-105469890D01*
X121167820Y-105344951D01*
X120978414Y-105248444D01*
X120978413Y-105248443D01*
X120978412Y-105248443D01*
X120776243Y-105182754D01*
X120776241Y-105182753D01*
X120776240Y-105182753D01*
X120614957Y-105157208D01*
X120566287Y-105149500D01*
X120353713Y-105149500D01*
X120305042Y-105157208D01*
X120143760Y-105182753D01*
X120042672Y-105215598D01*
X119987612Y-105233489D01*
X119941585Y-105248444D01*
X119752179Y-105344951D01*
X119580213Y-105469890D01*
X119429890Y-105620213D01*
X119304949Y-105792182D01*
X119300202Y-105801499D01*
X119252227Y-105852293D01*
X119184405Y-105869087D01*
X119118271Y-105846548D01*
X119079234Y-105801495D01*
X119074626Y-105792452D01*
X119035270Y-105738282D01*
X119035269Y-105738282D01*
X118402962Y-106370590D01*
X118385925Y-106307007D01*
X118320099Y-106192993D01*
X118227007Y-106099901D01*
X118112993Y-106034075D01*
X118049409Y-106017037D01*
X118681716Y-105384728D01*
X118627550Y-105345375D01*
X118438217Y-105248904D01*
X118236129Y-105183242D01*
X118026246Y-105150000D01*
X117813754Y-105150000D01*
X117603872Y-105183242D01*
X117603869Y-105183242D01*
X117401782Y-105248904D01*
X117212439Y-105345380D01*
X117158282Y-105384727D01*
X117158282Y-105384728D01*
X117790591Y-106017037D01*
X117727007Y-106034075D01*
X117612993Y-106099901D01*
X117519901Y-106192993D01*
X117454075Y-106307007D01*
X117437037Y-106370591D01*
X116804728Y-105738282D01*
X116804727Y-105738282D01*
X116765380Y-105792440D01*
X116765376Y-105792446D01*
X116760760Y-105801505D01*
X116712781Y-105852297D01*
X116644959Y-105869087D01*
X116578826Y-105846543D01*
X116539794Y-105801493D01*
X116535051Y-105792184D01*
X116535049Y-105792181D01*
X116535048Y-105792179D01*
X116410109Y-105620213D01*
X116259786Y-105469890D01*
X116087820Y-105344951D01*
X115898414Y-105248444D01*
X115898413Y-105248443D01*
X115898412Y-105248443D01*
X115696243Y-105182754D01*
X115696241Y-105182753D01*
X115696240Y-105182753D01*
X115534957Y-105157208D01*
X115486287Y-105149500D01*
X115273713Y-105149500D01*
X115225042Y-105157208D01*
X115063760Y-105182753D01*
X114962672Y-105215598D01*
X114907612Y-105233489D01*
X114861585Y-105248444D01*
X114672179Y-105344951D01*
X114500213Y-105469890D01*
X114349890Y-105620213D01*
X114224951Y-105792179D01*
X114128444Y-105981585D01*
X114062753Y-106183760D01*
X114043233Y-106307007D01*
X114029500Y-106393713D01*
X114029500Y-106606287D01*
X114062754Y-106816243D01*
X114126743Y-107013181D01*
X114128444Y-107018414D01*
X114224951Y-107207820D01*
X114349890Y-107379786D01*
X114500213Y-107530109D01*
X114672179Y-107655048D01*
X114672181Y-107655049D01*
X114672184Y-107655051D01*
X114861588Y-107751557D01*
X115033975Y-107807569D01*
X115091651Y-107847007D01*
X115118849Y-107911365D01*
X115106934Y-107980212D01*
X115059690Y-108031687D01*
X114995657Y-108049500D01*
X110351519Y-108049500D01*
X110284480Y-108029815D01*
X110263838Y-108013181D01*
X108886818Y-106636161D01*
X108853333Y-106574838D01*
X108850499Y-106548480D01*
X108850499Y-105342129D01*
X108850498Y-105342123D01*
X108849881Y-105336385D01*
X108844091Y-105282517D01*
X108842534Y-105278343D01*
X108793797Y-105147671D01*
X108793793Y-105147664D01*
X108707547Y-105032455D01*
X108707544Y-105032452D01*
X108592335Y-104946206D01*
X108592328Y-104946202D01*
X108460917Y-104897189D01*
X108404983Y-104855318D01*
X108380566Y-104789853D01*
X108395418Y-104721580D01*
X108416563Y-104693332D01*
X108530104Y-104579792D01*
X108655051Y-104407816D01*
X108751557Y-104218412D01*
X108817246Y-104016243D01*
X108850500Y-103806287D01*
X108850500Y-103593713D01*
X108827191Y-103446545D01*
X108825715Y-103437227D01*
X108834670Y-103367933D01*
X108860504Y-103330151D01*
X109203838Y-102986819D01*
X109265161Y-102953334D01*
X109291519Y-102950500D01*
X124908481Y-102950500D01*
X124975520Y-102970185D01*
G37*
G04 #@! TD.AperFunction*
G04 #@! TA.AperFunction,Conductor*
G36*
X117454075Y-106692993D02*
G01*
X117519901Y-106807007D01*
X117612993Y-106900099D01*
X117727007Y-106965925D01*
X117790590Y-106982962D01*
X117158282Y-107615269D01*
X117158282Y-107615270D01*
X117212449Y-107654624D01*
X117401782Y-107751095D01*
X117575591Y-107807569D01*
X117633266Y-107847006D01*
X117660465Y-107911365D01*
X117648550Y-107980211D01*
X117601306Y-108031687D01*
X117537273Y-108049500D01*
X115764343Y-108049500D01*
X115697304Y-108029815D01*
X115651549Y-107977011D01*
X115641605Y-107907853D01*
X115670630Y-107844297D01*
X115726024Y-107807569D01*
X115898412Y-107751557D01*
X116087816Y-107655051D01*
X116149571Y-107610184D01*
X116259786Y-107530109D01*
X116259788Y-107530106D01*
X116259792Y-107530104D01*
X116410104Y-107379792D01*
X116410106Y-107379788D01*
X116410109Y-107379786D01*
X116495890Y-107261717D01*
X116535051Y-107207816D01*
X116539793Y-107198508D01*
X116587763Y-107147711D01*
X116655583Y-107130911D01*
X116721719Y-107153445D01*
X116760763Y-107198500D01*
X116765373Y-107207547D01*
X116804728Y-107261716D01*
X117437037Y-106629408D01*
X117454075Y-106692993D01*
G37*
G04 #@! TD.AperFunction*
G04 #@! TA.AperFunction,Conductor*
G36*
X119035270Y-107261717D02*
G01*
X119035270Y-107261716D01*
X119074622Y-107207555D01*
X119079232Y-107198507D01*
X119127205Y-107147709D01*
X119195025Y-107130912D01*
X119261161Y-107153447D01*
X119300204Y-107198504D01*
X119304949Y-107207817D01*
X119429890Y-107379786D01*
X119580213Y-107530109D01*
X119752179Y-107655048D01*
X119752181Y-107655049D01*
X119752184Y-107655051D01*
X119941588Y-107751557D01*
X120113975Y-107807569D01*
X120171651Y-107847007D01*
X120198849Y-107911365D01*
X120186934Y-107980212D01*
X120139690Y-108031687D01*
X120075657Y-108049500D01*
X118302727Y-108049500D01*
X118235688Y-108029815D01*
X118189933Y-107977011D01*
X118179989Y-107907853D01*
X118209014Y-107844297D01*
X118264409Y-107807569D01*
X118438217Y-107751095D01*
X118627554Y-107654622D01*
X118681716Y-107615270D01*
X118681717Y-107615270D01*
X118049408Y-106982962D01*
X118112993Y-106965925D01*
X118227007Y-106900099D01*
X118320099Y-106807007D01*
X118385925Y-106692993D01*
X118402962Y-106629408D01*
X119035270Y-107261717D01*
G37*
G04 #@! TD.AperFunction*
G04 #@! TA.AperFunction,Conductor*
G36*
X147070842Y-98056300D02*
G01*
X147087079Y-98069969D01*
X152513181Y-103496071D01*
X152546666Y-103557394D01*
X152549500Y-103583752D01*
X152549500Y-105074684D01*
X152540061Y-105122136D01*
X152480264Y-105266498D01*
X152480261Y-105266510D01*
X152449500Y-105421153D01*
X152449500Y-105578846D01*
X152480261Y-105733489D01*
X152480264Y-105733501D01*
X152540602Y-105879172D01*
X152540609Y-105879185D01*
X152628210Y-106010288D01*
X152628213Y-106010292D01*
X152739707Y-106121786D01*
X152739711Y-106121789D01*
X152870814Y-106209390D01*
X152870821Y-106209394D01*
X152874549Y-106210938D01*
X152928953Y-106254778D01*
X152951019Y-106321072D01*
X152933741Y-106388771D01*
X152882605Y-106436383D01*
X152827098Y-106449500D01*
X147292243Y-106449500D01*
X147225204Y-106429815D01*
X147179449Y-106377011D01*
X147169505Y-106307853D01*
X147198530Y-106244297D01*
X147244791Y-106210939D01*
X147355488Y-106165087D01*
X147355488Y-106165086D01*
X147355495Y-106165084D01*
X147478416Y-106082951D01*
X147582951Y-105978416D01*
X147665084Y-105855495D01*
X147721658Y-105718913D01*
X147736459Y-105644505D01*
X147750500Y-105573920D01*
X147750500Y-105426079D01*
X147721659Y-105281092D01*
X147721658Y-105281091D01*
X147721658Y-105281087D01*
X147708574Y-105249500D01*
X147665087Y-105144511D01*
X147665080Y-105144498D01*
X147582951Y-105021584D01*
X147582948Y-105021580D01*
X147482521Y-104921153D01*
X148199500Y-104921153D01*
X148199500Y-105078846D01*
X148230261Y-105233489D01*
X148230264Y-105233501D01*
X148290602Y-105379172D01*
X148290609Y-105379185D01*
X148378210Y-105510288D01*
X148378213Y-105510292D01*
X148489707Y-105621786D01*
X148489711Y-105621789D01*
X148620814Y-105709390D01*
X148620827Y-105709397D01*
X148766498Y-105769735D01*
X148766503Y-105769737D01*
X148921153Y-105800499D01*
X148921156Y-105800500D01*
X148921158Y-105800500D01*
X149078844Y-105800500D01*
X149078845Y-105800499D01*
X149233497Y-105769737D01*
X149379179Y-105709394D01*
X149510289Y-105621789D01*
X149621789Y-105510289D01*
X149709394Y-105379179D01*
X149709395Y-105379176D01*
X149709397Y-105379173D01*
X149751162Y-105278342D01*
X149769192Y-105234810D01*
X149796069Y-105194586D01*
X150194586Y-104796069D01*
X150234810Y-104769192D01*
X150289435Y-104746566D01*
X150379173Y-104709397D01*
X150379176Y-104709395D01*
X150379179Y-104709394D01*
X150510289Y-104621789D01*
X150621789Y-104510289D01*
X150709394Y-104379179D01*
X150769737Y-104233497D01*
X150800500Y-104078842D01*
X150800500Y-103921158D01*
X150800500Y-103921155D01*
X150800499Y-103921153D01*
X150769737Y-103766503D01*
X150769191Y-103765184D01*
X150709397Y-103620827D01*
X150709390Y-103620814D01*
X150621789Y-103489711D01*
X150621786Y-103489707D01*
X150510292Y-103378213D01*
X150510288Y-103378210D01*
X150379185Y-103290609D01*
X150379172Y-103290602D01*
X150233501Y-103230264D01*
X150233489Y-103230261D01*
X150078845Y-103199500D01*
X150078842Y-103199500D01*
X149921158Y-103199500D01*
X149921155Y-103199500D01*
X149766510Y-103230261D01*
X149766498Y-103230264D01*
X149620827Y-103290602D01*
X149620814Y-103290609D01*
X149489711Y-103378210D01*
X149489707Y-103378213D01*
X149378213Y-103489707D01*
X149378210Y-103489711D01*
X149290609Y-103620814D01*
X149290604Y-103620823D01*
X149230809Y-103765184D01*
X149203929Y-103805412D01*
X148805412Y-104203929D01*
X148765184Y-104230809D01*
X148620823Y-104290604D01*
X148620814Y-104290609D01*
X148489711Y-104378210D01*
X148489707Y-104378213D01*
X148378213Y-104489707D01*
X148378210Y-104489711D01*
X148290609Y-104620814D01*
X148290602Y-104620827D01*
X148230264Y-104766498D01*
X148230261Y-104766510D01*
X148199500Y-104921153D01*
X147482521Y-104921153D01*
X147478419Y-104917051D01*
X147478415Y-104917048D01*
X147355501Y-104834919D01*
X147355488Y-104834912D01*
X147218917Y-104778343D01*
X147218907Y-104778340D01*
X147073920Y-104749500D01*
X147073918Y-104749500D01*
X146926082Y-104749500D01*
X146926080Y-104749500D01*
X146781092Y-104778340D01*
X146781082Y-104778343D01*
X146644511Y-104834912D01*
X146644498Y-104834919D01*
X146521584Y-104917048D01*
X146521580Y-104917051D01*
X146417051Y-105021580D01*
X146417048Y-105021584D01*
X146334919Y-105144498D01*
X146334914Y-105144507D01*
X146276011Y-105286714D01*
X146275148Y-105286356D01*
X146247398Y-105332655D01*
X145666873Y-105913181D01*
X145605550Y-105946666D01*
X145579192Y-105949500D01*
X142856922Y-105949500D01*
X142789883Y-105929815D01*
X142744128Y-105877011D01*
X142735305Y-105849692D01*
X142721659Y-105781092D01*
X142721658Y-105781091D01*
X142721658Y-105781087D01*
X142701946Y-105733497D01*
X142665087Y-105644511D01*
X142665080Y-105644498D01*
X142582951Y-105521584D01*
X142582948Y-105521580D01*
X142478419Y-105417051D01*
X142478415Y-105417048D01*
X142355501Y-105334919D01*
X142355488Y-105334912D01*
X142218917Y-105278343D01*
X142218907Y-105278340D01*
X142073920Y-105249500D01*
X142073918Y-105249500D01*
X141926082Y-105249500D01*
X141926080Y-105249500D01*
X141781092Y-105278340D01*
X141781086Y-105278342D01*
X141638878Y-105337247D01*
X141638520Y-105336385D01*
X141586160Y-105349500D01*
X135320808Y-105349500D01*
X135253769Y-105329815D01*
X135233127Y-105313181D01*
X134886009Y-104966063D01*
X134852524Y-104904740D01*
X134850517Y-104870161D01*
X134850500Y-104870161D01*
X134850500Y-104869874D01*
X134850288Y-104866223D01*
X134850500Y-104864071D01*
X134850500Y-101366269D01*
X134870185Y-101299230D01*
X134922989Y-101253475D01*
X134992147Y-101243531D01*
X135016868Y-101250312D01*
X135016954Y-101250051D01*
X135021586Y-101251556D01*
X135021588Y-101251557D01*
X135223757Y-101317246D01*
X135433713Y-101350500D01*
X135433714Y-101350500D01*
X135646286Y-101350500D01*
X135646287Y-101350500D01*
X135856243Y-101317246D01*
X136058412Y-101251557D01*
X136247816Y-101155051D01*
X136334138Y-101092335D01*
X136419786Y-101030109D01*
X136419788Y-101030106D01*
X136419792Y-101030104D01*
X136570104Y-100879792D01*
X136570106Y-100879788D01*
X136570109Y-100879786D01*
X136695048Y-100707820D01*
X136695047Y-100707820D01*
X136695051Y-100707816D01*
X136699514Y-100699054D01*
X136747488Y-100648259D01*
X136815308Y-100631463D01*
X136881444Y-100653999D01*
X136920486Y-100699056D01*
X136924951Y-100707820D01*
X137049890Y-100879786D01*
X137200213Y-101030109D01*
X137372179Y-101155048D01*
X137372181Y-101155049D01*
X137372184Y-101155051D01*
X137561588Y-101251557D01*
X137763757Y-101317246D01*
X137973713Y-101350500D01*
X137973714Y-101350500D01*
X138186286Y-101350500D01*
X138186287Y-101350500D01*
X138396243Y-101317246D01*
X138598412Y-101251557D01*
X138787816Y-101155051D01*
X138874138Y-101092335D01*
X138959786Y-101030109D01*
X138959788Y-101030106D01*
X138959792Y-101030104D01*
X139110104Y-100879792D01*
X139110106Y-100879788D01*
X139110109Y-100879786D01*
X139235048Y-100707820D01*
X139235047Y-100707820D01*
X139235051Y-100707816D01*
X139239514Y-100699054D01*
X139287488Y-100648259D01*
X139355308Y-100631463D01*
X139421444Y-100653999D01*
X139460486Y-100699056D01*
X139464951Y-100707820D01*
X139589890Y-100879786D01*
X139740213Y-101030109D01*
X139912179Y-101155048D01*
X139912181Y-101155049D01*
X139912184Y-101155051D01*
X140101588Y-101251557D01*
X140303757Y-101317246D01*
X140513713Y-101350500D01*
X140513714Y-101350500D01*
X140726286Y-101350500D01*
X140726287Y-101350500D01*
X140914795Y-101320643D01*
X140984088Y-101329598D01*
X141037295Y-101374225D01*
X141128210Y-101510288D01*
X141128213Y-101510292D01*
X141239707Y-101621786D01*
X141239711Y-101621789D01*
X141370814Y-101709390D01*
X141370827Y-101709397D01*
X141516498Y-101769735D01*
X141516503Y-101769737D01*
X141671153Y-101800499D01*
X141671156Y-101800500D01*
X141671158Y-101800500D01*
X141828844Y-101800500D01*
X141828845Y-101800499D01*
X141983497Y-101769737D01*
X142129179Y-101709394D01*
X142260289Y-101621789D01*
X142371789Y-101510289D01*
X142459394Y-101379179D01*
X142483744Y-101320391D01*
X142527584Y-101265989D01*
X142593878Y-101243923D01*
X142636433Y-101251651D01*
X142636954Y-101250051D01*
X142641586Y-101251556D01*
X142641588Y-101251557D01*
X142843757Y-101317246D01*
X143053713Y-101350500D01*
X143053714Y-101350500D01*
X143266286Y-101350500D01*
X143266287Y-101350500D01*
X143476243Y-101317246D01*
X143678412Y-101251557D01*
X143867816Y-101155051D01*
X143954138Y-101092335D01*
X144039786Y-101030109D01*
X144039788Y-101030106D01*
X144039792Y-101030104D01*
X144190104Y-100879792D01*
X144190106Y-100879788D01*
X144190109Y-100879786D01*
X144315048Y-100707820D01*
X144315047Y-100707820D01*
X144315051Y-100707816D01*
X144319514Y-100699054D01*
X144367488Y-100648259D01*
X144435308Y-100631463D01*
X144501444Y-100653999D01*
X144540486Y-100699056D01*
X144544951Y-100707820D01*
X144669890Y-100879786D01*
X144820213Y-101030109D01*
X144992179Y-101155048D01*
X144992181Y-101155049D01*
X144992184Y-101155051D01*
X145181588Y-101251557D01*
X145383757Y-101317246D01*
X145593713Y-101350500D01*
X145593714Y-101350500D01*
X145806286Y-101350500D01*
X145806287Y-101350500D01*
X146016243Y-101317246D01*
X146218412Y-101251557D01*
X146407816Y-101155051D01*
X146494138Y-101092335D01*
X146579786Y-101030109D01*
X146579788Y-101030106D01*
X146579792Y-101030104D01*
X146730104Y-100879792D01*
X146730106Y-100879788D01*
X146730109Y-100879786D01*
X146855048Y-100707820D01*
X146855047Y-100707820D01*
X146855051Y-100707816D01*
X146951557Y-100518412D01*
X147017246Y-100316243D01*
X147050500Y-100106287D01*
X147050500Y-99893713D01*
X147017246Y-99683757D01*
X146951557Y-99481588D01*
X146855051Y-99292184D01*
X146855049Y-99292181D01*
X146855048Y-99292179D01*
X146730109Y-99120213D01*
X146579786Y-98969890D01*
X146407820Y-98844951D01*
X146407115Y-98844591D01*
X146399054Y-98840485D01*
X146348259Y-98792512D01*
X146331463Y-98724692D01*
X146353999Y-98658556D01*
X146399054Y-98619515D01*
X146407816Y-98615051D01*
X146462570Y-98575270D01*
X146579786Y-98490109D01*
X146579788Y-98490106D01*
X146579792Y-98490104D01*
X146730104Y-98339792D01*
X146730106Y-98339788D01*
X146730109Y-98339786D01*
X146855048Y-98167820D01*
X146855050Y-98167817D01*
X146855051Y-98167816D01*
X146888915Y-98101353D01*
X146936886Y-98050560D01*
X147004707Y-98033764D01*
X147070842Y-98056300D01*
G37*
G04 #@! TD.AperFunction*
G04 #@! TA.AperFunction,Conductor*
G36*
X144275270Y-98221717D02*
G01*
X144275270Y-98221716D01*
X144314622Y-98167555D01*
X144319232Y-98158507D01*
X144367205Y-98107709D01*
X144435025Y-98090912D01*
X144501161Y-98113447D01*
X144540204Y-98158504D01*
X144544949Y-98167817D01*
X144669890Y-98339786D01*
X144820213Y-98490109D01*
X144992182Y-98615050D01*
X145000946Y-98619516D01*
X145051742Y-98667491D01*
X145068536Y-98735312D01*
X145045998Y-98801447D01*
X145000946Y-98840484D01*
X144992182Y-98844949D01*
X144820213Y-98969890D01*
X144669890Y-99120213D01*
X144544949Y-99292182D01*
X144540484Y-99300946D01*
X144492509Y-99351742D01*
X144424688Y-99368536D01*
X144358553Y-99345998D01*
X144319516Y-99300946D01*
X144315050Y-99292182D01*
X144190109Y-99120213D01*
X144039786Y-98969890D01*
X143867817Y-98844949D01*
X143858504Y-98840204D01*
X143807707Y-98792230D01*
X143790912Y-98724409D01*
X143813449Y-98658274D01*
X143858507Y-98619232D01*
X143867555Y-98614622D01*
X143921716Y-98575270D01*
X143921717Y-98575270D01*
X143289408Y-97942962D01*
X143352993Y-97925925D01*
X143467007Y-97860099D01*
X143560099Y-97767007D01*
X143625925Y-97652993D01*
X143642962Y-97589409D01*
X144275270Y-98221717D01*
G37*
G04 #@! TD.AperFunction*
G04 #@! TA.AperFunction,Conductor*
G36*
X142351019Y-96170185D02*
G01*
X142396774Y-96222989D01*
X142406718Y-96292147D01*
X142401526Y-96303515D01*
X142398282Y-96344728D01*
X143030591Y-96977037D01*
X142967007Y-96994075D01*
X142852993Y-97059901D01*
X142759901Y-97152993D01*
X142694075Y-97267007D01*
X142677037Y-97330591D01*
X142044728Y-96698282D01*
X142044727Y-96698282D01*
X142005380Y-96752440D01*
X142005376Y-96752446D01*
X142000760Y-96761505D01*
X141952781Y-96812297D01*
X141884959Y-96829087D01*
X141818826Y-96806543D01*
X141779794Y-96761493D01*
X141775051Y-96752184D01*
X141775049Y-96752181D01*
X141775048Y-96752179D01*
X141650109Y-96580213D01*
X141499792Y-96429896D01*
X141423984Y-96374819D01*
X141381318Y-96319489D01*
X141375339Y-96249876D01*
X141407944Y-96188080D01*
X141468783Y-96153723D01*
X141496869Y-96150500D01*
X142283980Y-96150500D01*
X142351019Y-96170185D01*
G37*
G04 #@! TD.AperFunction*
G04 #@! TA.AperFunction,Conductor*
G36*
X144890170Y-96170185D02*
G01*
X144935925Y-96222989D01*
X144945869Y-96292147D01*
X144916844Y-96355703D01*
X144896016Y-96374819D01*
X144820207Y-96429896D01*
X144669890Y-96580213D01*
X144544949Y-96752182D01*
X144540202Y-96761499D01*
X144492227Y-96812293D01*
X144424405Y-96829087D01*
X144358271Y-96806548D01*
X144319234Y-96761495D01*
X144314626Y-96752452D01*
X144275270Y-96698282D01*
X144275269Y-96698282D01*
X143642962Y-97330590D01*
X143625925Y-97267007D01*
X143560099Y-97152993D01*
X143467007Y-97059901D01*
X143352993Y-96994075D01*
X143289409Y-96977037D01*
X143921716Y-96344728D01*
X143917231Y-96287740D01*
X143917736Y-96287700D01*
X143914488Y-96249874D01*
X143947095Y-96188079D01*
X144007934Y-96153722D01*
X144036018Y-96150500D01*
X144823131Y-96150500D01*
X144890170Y-96170185D01*
G37*
G04 #@! TD.AperFunction*
G04 #@! TA.AperFunction,Conductor*
G36*
X112683601Y-74520185D02*
G01*
X112729356Y-74572989D01*
X112739300Y-74642147D01*
X112736709Y-74653145D01*
X112736911Y-74653189D01*
X112735493Y-74659809D01*
X112725000Y-74762513D01*
X112725000Y-76162500D01*
X115074999Y-76162500D01*
X115074999Y-74762528D01*
X115074998Y-74762513D01*
X115064505Y-74659798D01*
X115063089Y-74653181D01*
X115065363Y-74652694D01*
X115063327Y-74593690D01*
X115099051Y-74533644D01*
X115161568Y-74502444D01*
X115183438Y-74500500D01*
X118266562Y-74500500D01*
X118333601Y-74520185D01*
X118379356Y-74572989D01*
X118389300Y-74642147D01*
X118386709Y-74653145D01*
X118386911Y-74653189D01*
X118385493Y-74659809D01*
X118375000Y-74762513D01*
X118375000Y-76162500D01*
X120724999Y-76162500D01*
X120724999Y-74762528D01*
X120724998Y-74762513D01*
X120714505Y-74659798D01*
X120713089Y-74653181D01*
X120715363Y-74652694D01*
X120713327Y-74593690D01*
X120749051Y-74533644D01*
X120811568Y-74502444D01*
X120833438Y-74500500D01*
X129793201Y-74500500D01*
X129860240Y-74520185D01*
X129905995Y-74572989D01*
X129915939Y-74642147D01*
X129886914Y-74705703D01*
X129849496Y-74734985D01*
X129712180Y-74804951D01*
X129540213Y-74929890D01*
X129389890Y-75080213D01*
X129264951Y-75252179D01*
X129168444Y-75441585D01*
X129102753Y-75643760D01*
X129069500Y-75853713D01*
X129069500Y-76066286D01*
X129101239Y-76266681D01*
X129102754Y-76276243D01*
X129149193Y-76419168D01*
X129168444Y-76478414D01*
X129264951Y-76667820D01*
X129389890Y-76839786D01*
X129503430Y-76953326D01*
X129536915Y-77014649D01*
X129531931Y-77084341D01*
X129490059Y-77140274D01*
X129459083Y-77157189D01*
X129327669Y-77206203D01*
X129327664Y-77206206D01*
X129212455Y-77292452D01*
X129212452Y-77292455D01*
X129126206Y-77407664D01*
X129126202Y-77407671D01*
X129075908Y-77542517D01*
X129069501Y-77602116D01*
X129069500Y-77602135D01*
X129069500Y-79397870D01*
X129069501Y-79397876D01*
X129075908Y-79457483D01*
X129126202Y-79592328D01*
X129126206Y-79592335D01*
X129212452Y-79707544D01*
X129212455Y-79707547D01*
X129327664Y-79793793D01*
X129327671Y-79793797D01*
X129462517Y-79844091D01*
X129462516Y-79844091D01*
X129469444Y-79844835D01*
X129522127Y-79850500D01*
X131317872Y-79850499D01*
X131377483Y-79844091D01*
X131512331Y-79793796D01*
X131627546Y-79707546D01*
X131713796Y-79592331D01*
X131762810Y-79460916D01*
X131804681Y-79404984D01*
X131870145Y-79380566D01*
X131938418Y-79395417D01*
X131966673Y-79416569D01*
X132080213Y-79530109D01*
X132252179Y-79655048D01*
X132252181Y-79655049D01*
X132252184Y-79655051D01*
X132441588Y-79751557D01*
X132643757Y-79817246D01*
X132853713Y-79850500D01*
X132853714Y-79850500D01*
X133066286Y-79850500D01*
X133066287Y-79850500D01*
X133276243Y-79817246D01*
X133478412Y-79751557D01*
X133667816Y-79655051D01*
X133754138Y-79592335D01*
X133839786Y-79530109D01*
X133839788Y-79530106D01*
X133839792Y-79530104D01*
X133990104Y-79379792D01*
X133990106Y-79379788D01*
X133990109Y-79379786D01*
X134115048Y-79207820D01*
X134115047Y-79207820D01*
X134115051Y-79207816D01*
X134119514Y-79199054D01*
X134167488Y-79148259D01*
X134235308Y-79131463D01*
X134301444Y-79153999D01*
X134340486Y-79199056D01*
X134344951Y-79207820D01*
X134469890Y-79379786D01*
X134620213Y-79530109D01*
X134792179Y-79655048D01*
X134792181Y-79655049D01*
X134792184Y-79655051D01*
X134981588Y-79751557D01*
X135183757Y-79817246D01*
X135393713Y-79850500D01*
X135393714Y-79850500D01*
X135606286Y-79850500D01*
X135606287Y-79850500D01*
X135816243Y-79817246D01*
X136018412Y-79751557D01*
X136207816Y-79655051D01*
X136294138Y-79592335D01*
X136379786Y-79530109D01*
X136379788Y-79530106D01*
X136379792Y-79530104D01*
X136530104Y-79379792D01*
X136530106Y-79379788D01*
X136530109Y-79379786D01*
X136655048Y-79207820D01*
X136655047Y-79207820D01*
X136655051Y-79207816D01*
X136659514Y-79199054D01*
X136707488Y-79148259D01*
X136775308Y-79131463D01*
X136841444Y-79153999D01*
X136880486Y-79199056D01*
X136884951Y-79207820D01*
X137009890Y-79379786D01*
X137160213Y-79530109D01*
X137332179Y-79655048D01*
X137332181Y-79655049D01*
X137332184Y-79655051D01*
X137521588Y-79751557D01*
X137723757Y-79817246D01*
X137933713Y-79850500D01*
X137933714Y-79850500D01*
X138146286Y-79850500D01*
X138146287Y-79850500D01*
X138356243Y-79817246D01*
X138558412Y-79751557D01*
X138747816Y-79655051D01*
X138834138Y-79592335D01*
X138919786Y-79530109D01*
X138919788Y-79530106D01*
X138919792Y-79530104D01*
X139070104Y-79379792D01*
X139070106Y-79379788D01*
X139070109Y-79379786D01*
X139195048Y-79207820D01*
X139195047Y-79207820D01*
X139195051Y-79207816D01*
X139199514Y-79199054D01*
X139247488Y-79148259D01*
X139315308Y-79131463D01*
X139381444Y-79153999D01*
X139420486Y-79199056D01*
X139424951Y-79207820D01*
X139549890Y-79379786D01*
X139700213Y-79530109D01*
X139872179Y-79655048D01*
X139872181Y-79655049D01*
X139872184Y-79655051D01*
X140061588Y-79751557D01*
X140263757Y-79817246D01*
X140473713Y-79850500D01*
X140473714Y-79850500D01*
X140686286Y-79850500D01*
X140686287Y-79850500D01*
X140896243Y-79817246D01*
X141098412Y-79751557D01*
X141137537Y-79731622D01*
X141206206Y-79718725D01*
X141270947Y-79745001D01*
X141296935Y-79773216D01*
X141325882Y-79816538D01*
X141325888Y-79816546D01*
X143013181Y-81503837D01*
X143046666Y-81565160D01*
X143049500Y-81591518D01*
X143049500Y-82139899D01*
X143029815Y-82206938D01*
X143028602Y-82208790D01*
X142951988Y-82323449D01*
X142951987Y-82323452D01*
X142884106Y-82487332D01*
X142884103Y-82487341D01*
X142849500Y-82661304D01*
X142849500Y-82661309D01*
X142849500Y-85588691D01*
X142849500Y-85588693D01*
X142849499Y-85588693D01*
X142861955Y-85651308D01*
X142855728Y-85720900D01*
X142812865Y-85776077D01*
X142746975Y-85799322D01*
X142740338Y-85799500D01*
X141591518Y-85799500D01*
X141524479Y-85779815D01*
X141503837Y-85763181D01*
X138576546Y-82835888D01*
X138576545Y-82835887D01*
X138461807Y-82759222D01*
X138334332Y-82706421D01*
X138334322Y-82706418D01*
X138198996Y-82679500D01*
X138198994Y-82679500D01*
X138198993Y-82679500D01*
X108723547Y-82679500D01*
X108656508Y-82659815D01*
X108623230Y-82628385D01*
X108530108Y-82500213D01*
X108530107Y-82500211D01*
X108379786Y-82349890D01*
X108207820Y-82224951D01*
X108018414Y-82128444D01*
X108018413Y-82128443D01*
X108018412Y-82128443D01*
X107816243Y-82062754D01*
X107816241Y-82062753D01*
X107816240Y-82062753D01*
X107654957Y-82037208D01*
X107606287Y-82029500D01*
X107393713Y-82029500D01*
X107345042Y-82037208D01*
X107183760Y-82062753D01*
X106981585Y-82128444D01*
X106792179Y-82224951D01*
X106620213Y-82349890D01*
X106469890Y-82500213D01*
X106344951Y-82672179D01*
X106248445Y-82861582D01*
X106248443Y-82861587D01*
X106248443Y-82861588D01*
X106242429Y-82880094D01*
X106202992Y-82937768D01*
X106138633Y-82964965D01*
X106069787Y-82953050D01*
X106018312Y-82905805D01*
X106000500Y-82841773D01*
X106000500Y-78003051D01*
X106000649Y-77996967D01*
X106007830Y-77850793D01*
X106017052Y-77663068D01*
X106018245Y-77650962D01*
X106025489Y-77602127D01*
X106033337Y-77549223D01*
X107699500Y-77549223D01*
X107699500Y-77850776D01*
X107699501Y-77850793D01*
X107738861Y-78149766D01*
X107816913Y-78441060D01*
X107932314Y-78719661D01*
X107932318Y-78719671D01*
X108083099Y-78980831D01*
X108266679Y-79220078D01*
X108266685Y-79220085D01*
X108479914Y-79433314D01*
X108479921Y-79433320D01*
X108719168Y-79616900D01*
X108980328Y-79767681D01*
X108980329Y-79767681D01*
X108980332Y-79767683D01*
X109098291Y-79816543D01*
X109258939Y-79883086D01*
X109258940Y-79883086D01*
X109258942Y-79883087D01*
X109550232Y-79961138D01*
X109849217Y-80000500D01*
X109849224Y-80000500D01*
X110150776Y-80000500D01*
X110150783Y-80000500D01*
X110449768Y-79961138D01*
X110741058Y-79883087D01*
X111019668Y-79767683D01*
X111280832Y-79616900D01*
X111520080Y-79433319D01*
X111733319Y-79220080D01*
X111916900Y-78980832D01*
X112067683Y-78719668D01*
X112183087Y-78441058D01*
X112261138Y-78149768D01*
X112272629Y-78062486D01*
X112725001Y-78062486D01*
X112735494Y-78165197D01*
X112790641Y-78331619D01*
X112790643Y-78331624D01*
X112882684Y-78480845D01*
X113006654Y-78604815D01*
X113155875Y-78696856D01*
X113155880Y-78696858D01*
X113322302Y-78752005D01*
X113322309Y-78752006D01*
X113425019Y-78762499D01*
X113649999Y-78762499D01*
X114150000Y-78762499D01*
X114374972Y-78762499D01*
X114374986Y-78762498D01*
X114477697Y-78752005D01*
X114644119Y-78696858D01*
X114644124Y-78696856D01*
X114793345Y-78604815D01*
X114917315Y-78480845D01*
X115009356Y-78331624D01*
X115009358Y-78331619D01*
X115064505Y-78165197D01*
X115064506Y-78165190D01*
X115074999Y-78062486D01*
X118375001Y-78062486D01*
X118385494Y-78165197D01*
X118440641Y-78331619D01*
X118440643Y-78331624D01*
X118532684Y-78480845D01*
X118656654Y-78604815D01*
X118805875Y-78696856D01*
X118805880Y-78696858D01*
X118972302Y-78752005D01*
X118972309Y-78752006D01*
X119075019Y-78762499D01*
X119299999Y-78762499D01*
X119800000Y-78762499D01*
X120024972Y-78762499D01*
X120024986Y-78762498D01*
X120127697Y-78752005D01*
X120294119Y-78696858D01*
X120294124Y-78696856D01*
X120443345Y-78604815D01*
X120567315Y-78480845D01*
X120659356Y-78331624D01*
X120659358Y-78331619D01*
X120714505Y-78165197D01*
X120714506Y-78165190D01*
X120724999Y-78062486D01*
X120725000Y-78062473D01*
X120725000Y-76662500D01*
X119800000Y-76662500D01*
X119800000Y-78762499D01*
X119299999Y-78762499D01*
X119300000Y-78762498D01*
X119300000Y-76662500D01*
X118375001Y-76662500D01*
X118375001Y-78062486D01*
X115074999Y-78062486D01*
X115075000Y-78062473D01*
X115075000Y-76662500D01*
X114150000Y-76662500D01*
X114150000Y-78762499D01*
X113649999Y-78762499D01*
X113650000Y-78762498D01*
X113650000Y-76662500D01*
X112725001Y-76662500D01*
X112725001Y-78062486D01*
X112272629Y-78062486D01*
X112300500Y-77850783D01*
X112300500Y-77549217D01*
X112261138Y-77250232D01*
X112183087Y-76958942D01*
X112180760Y-76953325D01*
X112084825Y-76721717D01*
X112067683Y-76680332D01*
X111916900Y-76419168D01*
X111799893Y-76266681D01*
X111733320Y-76179921D01*
X111733314Y-76179914D01*
X111520085Y-75966685D01*
X111520078Y-75966679D01*
X111280831Y-75783099D01*
X111019671Y-75632318D01*
X111019661Y-75632314D01*
X110741060Y-75516913D01*
X110449766Y-75438861D01*
X110150793Y-75399501D01*
X110150788Y-75399500D01*
X110150783Y-75399500D01*
X109849217Y-75399500D01*
X109849211Y-75399500D01*
X109849206Y-75399501D01*
X109550233Y-75438861D01*
X109258939Y-75516913D01*
X108980338Y-75632314D01*
X108980328Y-75632318D01*
X108719168Y-75783099D01*
X108479921Y-75966679D01*
X108479914Y-75966685D01*
X108266685Y-76179914D01*
X108266679Y-76179921D01*
X108083099Y-76419168D01*
X107932318Y-76680328D01*
X107932314Y-76680338D01*
X107816913Y-76958939D01*
X107738861Y-77250233D01*
X107699501Y-77549206D01*
X107699500Y-77549223D01*
X106033337Y-77549223D01*
X106066850Y-77323292D01*
X106069218Y-77311385D01*
X106149710Y-76990043D01*
X106153240Y-76978411D01*
X106174788Y-76918189D01*
X106264835Y-76666525D01*
X106269476Y-76655318D01*
X106411124Y-76355828D01*
X106416840Y-76345136D01*
X106587145Y-76060998D01*
X106593888Y-76050905D01*
X106791232Y-75784818D01*
X106798935Y-75775433D01*
X107021405Y-75529975D01*
X107029975Y-75521405D01*
X107275433Y-75298935D01*
X107284818Y-75291232D01*
X107550905Y-75093888D01*
X107560998Y-75087145D01*
X107845136Y-74916840D01*
X107855828Y-74911124D01*
X108155318Y-74769476D01*
X108166525Y-74764835D01*
X108478412Y-74653239D01*
X108490043Y-74649710D01*
X108811385Y-74569218D01*
X108823296Y-74566849D01*
X109150962Y-74518244D01*
X109163068Y-74517052D01*
X109496967Y-74500648D01*
X109503051Y-74500500D01*
X109565892Y-74500500D01*
X112616562Y-74500500D01*
X112683601Y-74520185D01*
G37*
G04 #@! TD.AperFunction*
G04 #@! TA.AperFunction,Conductor*
G36*
X144235270Y-76721717D02*
G01*
X144235270Y-76721716D01*
X144274622Y-76667555D01*
X144279232Y-76658507D01*
X144327205Y-76607709D01*
X144395025Y-76590912D01*
X144461161Y-76613447D01*
X144500204Y-76658504D01*
X144504949Y-76667817D01*
X144629890Y-76839786D01*
X144780213Y-76990109D01*
X144952182Y-77115050D01*
X144960946Y-77119516D01*
X145011742Y-77167491D01*
X145028536Y-77235312D01*
X145005998Y-77301447D01*
X144960946Y-77340484D01*
X144952182Y-77344949D01*
X144780213Y-77469890D01*
X144629890Y-77620213D01*
X144504949Y-77792182D01*
X144500484Y-77800946D01*
X144452509Y-77851742D01*
X144384688Y-77868536D01*
X144318553Y-77845998D01*
X144279516Y-77800946D01*
X144275050Y-77792182D01*
X144150109Y-77620213D01*
X143999786Y-77469890D01*
X143827817Y-77344949D01*
X143818504Y-77340204D01*
X143767707Y-77292230D01*
X143750912Y-77224409D01*
X143773449Y-77158274D01*
X143818507Y-77119232D01*
X143827555Y-77114622D01*
X143881716Y-77075270D01*
X143881717Y-77075270D01*
X143249408Y-76442962D01*
X143312993Y-76425925D01*
X143427007Y-76360099D01*
X143520099Y-76267007D01*
X143585925Y-76152993D01*
X143602962Y-76089408D01*
X144235270Y-76721717D01*
G37*
G04 #@! TD.AperFunction*
G04 #@! TA.AperFunction,Conductor*
G36*
X142561342Y-74520185D02*
G01*
X142607097Y-74572989D01*
X142617041Y-74642147D01*
X142588016Y-74705703D01*
X142550598Y-74734985D01*
X142412439Y-74805380D01*
X142358282Y-74844727D01*
X142358282Y-74844728D01*
X142990591Y-75477037D01*
X142927007Y-75494075D01*
X142812993Y-75559901D01*
X142719901Y-75652993D01*
X142654075Y-75767007D01*
X142637037Y-75830591D01*
X142004728Y-75198282D01*
X142004727Y-75198282D01*
X141965380Y-75252440D01*
X141965376Y-75252446D01*
X141960760Y-75261505D01*
X141912781Y-75312297D01*
X141844959Y-75329087D01*
X141778826Y-75306543D01*
X141739794Y-75261493D01*
X141735051Y-75252184D01*
X141735049Y-75252181D01*
X141735048Y-75252179D01*
X141610109Y-75080213D01*
X141459786Y-74929890D01*
X141287819Y-74804951D01*
X141287818Y-74804950D01*
X141287816Y-74804949D01*
X141150504Y-74734985D01*
X141099708Y-74687010D01*
X141082913Y-74619189D01*
X141105450Y-74553054D01*
X141160166Y-74509603D01*
X141206799Y-74500500D01*
X142494303Y-74500500D01*
X142561342Y-74520185D01*
G37*
G04 #@! TD.AperFunction*
G04 #@! TA.AperFunction,Conductor*
G36*
X145100240Y-74520185D02*
G01*
X145145995Y-74572989D01*
X145155939Y-74642147D01*
X145126914Y-74705703D01*
X145089496Y-74734985D01*
X144952180Y-74804951D01*
X144780213Y-74929890D01*
X144629890Y-75080213D01*
X144504949Y-75252182D01*
X144500202Y-75261499D01*
X144452227Y-75312293D01*
X144384405Y-75329087D01*
X144318271Y-75306548D01*
X144279234Y-75261495D01*
X144274626Y-75252452D01*
X144235270Y-75198282D01*
X144235269Y-75198282D01*
X143602962Y-75830590D01*
X143585925Y-75767007D01*
X143520099Y-75652993D01*
X143427007Y-75559901D01*
X143312993Y-75494075D01*
X143249409Y-75477037D01*
X143881716Y-74844728D01*
X143827550Y-74805375D01*
X143689403Y-74734985D01*
X143638607Y-74687010D01*
X143621812Y-74619189D01*
X143644350Y-74553054D01*
X143699065Y-74509603D01*
X143745698Y-74500500D01*
X145033201Y-74500500D01*
X145100240Y-74520185D01*
G37*
G04 #@! TD.AperFunction*
G04 #@! TD*
M02*
